<svg xmlns="http://www.w3.org/2000/svg" style="color:#C9E835" width="947" height="385.344" viewBox="0 0 947 385.344" fill="none">
  <path d="M -1.995 162.139 C -2.074 163.241 -1.244 164.198 -0.142 164.276 C 0.959 164.355 1.916 163.526 1.995 162.424 L 0 162.282 L -1.995 162.139 Z M 65.501 23.781 L 65.283 21.793 L 65.501 23.781 Z M 40 219.281 L 40 217.281 L 40 219.281 Z M 180 2.282 L 180.548 0.359 L 180 2.282 Z M 90 300.281 L 91.971 299.94 L 91.971 299.94 L 90 300.281 Z M 578 172.281 L 576.949 173.983 L 578 172.281 Z M 947.209 380.27 C 948.307 380.155 949.104 379.171 948.989 378.073 C 948.874 376.974 947.89 376.177 946.791 376.292 L 947 378.281 L 947.209 380.27 Z M 193.246 365.765 C 194.342 365.905 195.344 365.131 195.484 364.035 C 195.624 362.939 194.849 361.938 193.754 361.797 L 193.5 363.781 L 193.246 365.765 Z M 389.904 374.784 C 388.801 374.836 387.949 375.774 388.002 376.877 C 388.055 377.98 388.992 378.832 390.096 378.779 L 390 376.781 L 389.904 374.784 Z M 267.176 370.289 C 266.076 370.192 265.105 371.005 265.008 372.105 C 264.911 373.206 265.724 374.176 266.824 374.273 L 267 372.281 L 267.176 370.289 Z M 283.824 375.773 C 284.924 375.871 285.895 375.057 285.992 373.957 C 286.089 372.857 285.276 371.886 284.176 371.789 L 284 373.781 L 283.824 375.773 Z M 2.434 157.535 C 2.551 156.437 1.755 155.452 0.657 155.335 C -0.442 155.218 -1.427 156.014 -1.544 157.112 L 0.445 157.324 L 2.434 157.535 Z M -0.213 147.09 C -0.383 148.182 0.364 149.204 1.455 149.375 C 2.546 149.545 3.569 148.799 3.739 147.707 L 1.763 147.399 L -0.213 147.09 Z M 5.458 137.909 C 5.668 136.825 4.959 135.775 3.874 135.566 C 2.79 135.356 1.741 136.065 1.531 137.149 L 3.495 137.529 L 5.458 137.909 Z M 3.601 127.282 C 3.358 128.359 4.034 129.43 5.112 129.673 C 6.189 129.916 7.26 129.239 7.503 128.162 L 5.552 127.722 L 3.601 127.282 Z M 9.835 118.471 C 10.108 117.401 9.462 116.311 8.392 116.038 C 7.322 115.764 6.233 116.41 5.959 117.48 L 7.897 117.975 L 9.835 118.471 Z M 8.591 107.755 C 8.287 108.817 8.902 109.924 9.964 110.228 C 11.026 110.531 12.133 109.917 12.437 108.854 L 10.514 108.305 L 8.591 107.755 Z M 15.31 99.321 C 15.644 98.269 15.061 97.144 14.009 96.81 C 12.956 96.476 11.831 97.058 11.497 98.111 L 13.404 98.716 L 15.31 99.321 Z M 14.695 88.55 C 14.328 89.592 14.875 90.734 15.917 91.101 C 16.959 91.468 18.101 90.921 18.468 89.879 L 16.581 89.215 L 14.695 88.55 Z M 21.931 80.56 C 22.335 79.531 21.828 78.371 20.8 77.967 C 19.771 77.564 18.611 78.071 18.207 79.099 L 20.069 79.829 L 21.931 80.56 Z M 22.083 69.767 C 21.638 70.778 22.097 71.958 23.108 72.403 C 24.119 72.848 25.299 72.389 25.744 71.378 L 23.914 70.573 L 22.083 69.767 Z M 29.957 62.396 C 30.451 61.408 30.052 60.207 29.064 59.712 C 28.076 59.218 26.875 59.617 26.38 60.605 L 28.168 61.5 L 29.957 62.396 Z M 31.192 51.678 C 30.636 52.633 30.96 53.857 31.914 54.413 C 32.869 54.969 34.093 54.646 34.649 53.691 L 32.921 52.685 L 31.192 51.678 Z M 39.94 45.39 C 40.575 44.486 40.357 43.238 39.453 42.603 C 38.549 41.969 37.302 42.187 36.667 43.091 L 38.304 44.24 L 39.94 45.39 Z M 43.038 35.047 C 42.296 35.866 42.36 37.13 43.179 37.872 C 43.998 38.613 45.263 38.549 46.004 37.73 L 44.521 36.389 L 43.038 35.047 Z M 53.05 31.207 C 53.934 30.546 54.115 29.292 53.454 28.408 C 52.792 27.523 51.539 27.342 50.654 28.004 L 51.852 29.605 L 53.05 31.207 Z M 59.994 22.966 C 58.947 23.317 58.382 24.45 58.733 25.497 C 59.084 26.545 60.217 27.11 61.265 26.759 L 60.629 24.862 L 59.994 22.966 Z M 70.58 25.63 C 71.682 25.706 72.637 24.874 72.713 23.772 C 72.789 22.671 71.957 21.716 70.855 21.64 L 70.717 23.635 L 70.58 25.63 Z M 81.432 26.201 C 80.688 25.384 79.423 25.325 78.606 26.068 C 77.79 26.812 77.73 28.076 78.474 28.893 L 79.953 27.547 L 81.432 26.201 Z M 81.456 37.16 C 81.542 38.262 82.505 39.084 83.606 38.998 C 84.707 38.912 85.53 37.949 85.444 36.848 L 83.45 37.004 L 81.456 37.16 Z M 84.829 47.593 C 85.003 46.502 84.259 45.477 83.168 45.303 C 82.078 45.129 81.052 45.873 80.879 46.963 L 82.854 47.278 L 84.829 47.593 Z M 78.683 56.877 C 78.393 57.943 79.022 59.042 80.088 59.332 C 81.154 59.622 82.253 58.993 82.543 57.927 L 80.613 57.402 L 78.683 56.877 Z M 79.48 67.891 C 79.833 66.845 79.272 65.71 78.225 65.356 C 77.179 65.003 76.044 65.565 75.69 66.611 L 77.585 67.251 L 79.48 67.891 Z M 72.224 76.231 C 71.831 77.263 72.35 78.419 73.382 78.811 C 74.415 79.204 75.57 78.685 75.963 77.652 L 74.093 76.942 L 72.224 76.231 Z M 72.15 87.297 C 72.567 86.274 72.077 85.106 71.055 84.689 C 70.033 84.271 68.865 84.761 68.447 85.783 L 70.298 86.54 L 72.15 87.297 Z M 64.469 95.276 C 64.034 96.292 64.505 97.467 65.521 97.902 C 66.536 98.337 67.712 97.866 68.146 96.85 L 66.308 96.063 L 64.469 95.276 Z M 64.022 106.339 C 64.467 105.328 64.008 104.148 62.997 103.703 C 61.986 103.258 60.806 103.717 60.361 104.727 L 62.191 105.533 L 64.022 106.339 Z M 56.175 114.155 C 55.725 115.163 56.177 116.346 57.185 116.797 C 58.194 117.247 59.377 116.795 59.827 115.786 L 58.001 114.971 L 56.175 114.155 Z M 55.605 125.212 C 56.057 124.204 55.606 123.02 54.598 122.568 C 53.59 122.117 52.407 122.567 51.955 123.575 L 53.78 124.394 L 55.605 125.212 Z M 47.739 133.007 C 47.291 134.016 47.745 135.198 48.754 135.647 C 49.763 136.096 50.945 135.642 51.394 134.633 L 49.567 133.82 L 47.739 133.007 Z M 47.236 144.066 C 47.678 143.054 47.215 141.875 46.202 141.434 C 45.189 140.992 44.011 141.456 43.57 142.468 L 45.403 143.267 L 47.236 144.066 Z M 39.492 151.978 C 39.063 152.996 39.542 154.169 40.56 154.597 C 41.578 155.025 42.75 154.547 43.179 153.529 L 41.335 152.754 L 39.492 151.978 Z M 39.283 163.036 C 39.691 162.01 39.189 160.847 38.163 160.439 C 37.136 160.031 35.974 160.533 35.566 161.559 L 37.424 162.298 L 39.283 163.036 Z M 31.879 171.234 C 31.502 172.272 32.038 173.419 33.077 173.796 C 34.115 174.172 35.262 173.636 35.639 172.597 L 33.759 171.915 L 31.879 171.234 Z M 32.355 182.31 C 32.682 181.255 32.091 180.135 31.036 179.808 C 29.981 179.482 28.861 180.072 28.534 181.127 L 30.445 181.719 L 32.355 182.31 Z M 25.796 191.279 C 25.556 192.357 26.235 193.426 27.314 193.666 C 28.392 193.905 29.46 193.226 29.7 192.148 L 27.748 191.713 L 25.796 191.279 Z M 28.222 201.997 C 28.284 200.895 27.441 199.95 26.338 199.887 C 25.236 199.825 24.291 200.668 24.228 201.771 L 26.225 201.884 L 28.222 201.997 Z M 25.618 212.792 C 26.031 213.816 27.197 214.311 28.221 213.897 C 29.245 213.483 29.74 212.318 29.326 211.294 L 27.472 212.043 L 25.618 212.792 Z M 35.412 216.717 C 34.349 216.417 33.244 217.036 32.944 218.099 C 32.644 219.162 33.263 220.267 34.326 220.567 L 34.869 218.642 L 35.412 216.717 Z M 45.453 220.834 C 46.543 220.651 47.277 219.62 47.095 218.531 C 46.912 217.441 45.88 216.707 44.791 216.89 L 45.122 218.862 L 45.453 220.834 Z M 53.659 213.731 C 52.697 214.275 52.359 215.495 52.903 216.456 C 53.447 217.418 54.668 217.756 55.629 217.212 L 54.644 215.471 L 53.659 213.731 Z M 64.086 210.584 C 64.857 209.792 64.84 208.526 64.049 207.755 C 63.258 206.985 61.992 207.001 61.221 207.792 L 62.654 209.188 L 64.086 210.584 Z M 67.299 200.146 C 66.689 201.067 66.941 202.308 67.861 202.918 C 68.782 203.528 70.023 203.277 70.633 202.356 L 68.966 201.251 L 67.299 200.146 Z M 75.819 193.306 C 76.313 192.318 75.913 191.117 74.926 190.623 C 73.938 190.129 72.736 190.529 72.242 191.516 L 74.031 192.411 L 75.819 193.306 Z M 76.35 182.337 C 75.938 183.361 76.433 184.527 77.458 184.939 C 78.483 185.352 79.648 184.856 80.061 183.832 L 78.205 183.084 L 76.35 182.337 Z M 83.637 174.142 C 83.992 173.096 83.432 171.96 82.386 171.605 C 81.34 171.25 80.204 171.81 79.849 172.855 L 81.743 173.499 L 83.637 174.142 Z M 82.907 163.2 C 82.593 164.259 83.197 165.372 84.256 165.686 C 85.315 166 86.428 165.396 86.742 164.337 L 84.824 163.768 L 82.907 163.2 Z M 89.513 154.466 C 89.798 153.399 89.164 152.303 88.096 152.018 C 87.029 151.733 85.933 152.368 85.648 153.435 L 87.581 153.95 L 89.513 154.466 Z M 88.167 143.596 C 87.903 144.669 88.558 145.753 89.63 146.017 C 90.702 146.281 91.786 145.626 92.051 144.554 L 90.109 144.075 L 88.167 143.596 Z M 94.431 134.616 C 94.682 133.54 94.014 132.465 92.938 132.214 C 91.862 131.962 90.787 132.631 90.536 133.706 L 92.483 134.161 L 94.431 134.616 Z M 92.815 123.78 C 92.571 124.857 93.246 125.929 94.323 126.173 C 95.401 126.417 96.472 125.741 96.716 124.664 L 94.765 124.222 L 92.815 123.78 Z M 98.959 114.709 C 99.201 113.631 98.524 112.561 97.446 112.319 C 96.369 112.076 95.299 112.753 95.056 113.831 L 97.008 114.27 L 98.959 114.709 Z M 97.309 103.872 C 97.063 104.948 97.737 106.021 98.814 106.267 C 99.89 106.512 100.963 105.839 101.209 104.762 L 99.259 104.317 L 97.309 103.872 Z M 103.513 94.836 C 103.767 93.761 103.102 92.684 102.027 92.429 C 100.952 92.174 99.875 92.839 99.62 93.914 L 101.566 94.375 L 103.513 94.836 Z M 102.04 83.972 C 101.771 85.044 102.422 86.13 103.493 86.399 C 104.564 86.668 105.651 86.017 105.92 84.946 L 103.98 84.459 L 102.04 83.972 Z M 108.485 75.11 C 108.774 74.044 108.145 72.945 107.079 72.655 C 106.013 72.366 104.914 72.995 104.625 74.061 L 106.555 74.585 L 108.485 75.11 Z M 107.438 64.199 C 107.12 65.256 107.72 66.372 108.778 66.689 C 109.836 67.007 110.951 66.407 111.269 65.35 L 109.354 64.774 L 107.438 64.199 Z M 114.349 55.698 C 114.704 54.652 114.145 53.516 113.099 53.161 C 112.053 52.805 110.917 53.365 110.562 54.411 L 112.455 55.054 L 114.349 55.698 Z M 114.097 44.737 C 113.692 45.765 114.197 46.926 115.224 47.332 C 116.252 47.737 117.413 47.232 117.819 46.204 L 115.958 45.471 L 114.097 44.737 Z M 121.799 36.951 C 122.27 35.951 121.841 34.76 120.842 34.289 C 119.843 33.818 118.651 34.247 118.18 35.246 L 119.99 36.098 L 121.799 36.951 Z M 122.99 26.058 C 122.433 27.011 122.754 28.236 123.707 28.794 C 124.661 29.351 125.886 29.03 126.443 28.076 L 124.717 27.067 L 122.99 26.058 Z M 131.94 19.817 C 132.61 18.939 132.443 17.684 131.565 17.013 C 130.687 16.343 129.432 16.51 128.762 17.388 L 130.351 18.602 L 131.94 19.817 Z M 135.812 9.579 C 135.001 10.329 134.95 11.594 135.699 12.406 C 136.448 13.217 137.714 13.268 138.525 12.519 L 137.169 11.049 L 135.812 9.579 Z M 146.349 6.755 C 147.31 6.211 147.649 4.991 147.105 4.03 C 146.561 3.068 145.34 2.73 144.379 3.274 L 145.364 5.015 L 146.349 6.755 Z M 154.3 -0.72 C 153.23 -0.449 152.582 0.64 152.854 1.71 C 153.125 2.781 154.214 3.429 155.284 3.157 L 154.792 1.218 L 154.3 -0.72 Z M 164.838 2 C 165.943 2 166.839 1.105 166.839 0.001 C 166.839 -1.104 165.944 -2 164.84 -2 L 164.839 0 L 164.838 2 Z M 175.309 -0.915 C 174.226 -1.131 173.172 -0.428 172.956 0.655 C 172.739 1.738 173.442 2.792 174.525 3.008 L 174.917 1.047 L 175.309 -0.915 Z M 183.895 5.787 C 184.906 6.232 186.086 5.772 186.531 4.761 C 186.975 3.75 186.516 2.57 185.504 2.125 L 184.7 3.956 L 183.895 5.787 Z M 194.117 8.042 C 193.362 7.235 192.097 7.193 191.29 7.948 C 190.483 8.702 190.441 9.968 191.196 10.775 L 192.656 9.408 L 194.117 8.042 Z M 195.397 18.373 C 195.694 19.437 196.798 20.058 197.862 19.76 C 198.925 19.463 199.547 18.359 199.249 17.295 L 197.323 17.834 L 195.397 18.373 Z M 200.269 27.588 C 200.319 26.485 199.466 25.549 198.363 25.498 C 197.259 25.447 196.324 26.301 196.273 27.404 L 198.271 27.496 L 200.269 27.588 Z M 194.938 36.708 C 194.695 37.785 195.372 38.856 196.449 39.098 C 197.527 39.341 198.597 38.665 198.84 37.587 L 196.889 37.147 L 194.938 36.708 Z M 196.124 47.139 C 196.476 46.092 195.913 44.958 194.866 44.606 C 193.819 44.254 192.685 44.818 192.333 45.865 L 194.229 46.502 L 196.124 47.139 Z M 188.947 54.88 C 188.527 55.902 189.015 57.07 190.037 57.49 C 191.058 57.91 192.227 57.422 192.647 56.4 L 190.797 55.64 L 188.947 54.88 Z M 188.688 65.425 C 189.153 64.423 188.717 63.234 187.715 62.77 C 186.713 62.305 185.524 62.741 185.059 63.743 L 186.874 64.584 L 188.688 65.425 Z M 180.833 72.481 C 180.337 73.468 180.736 74.67 181.723 75.165 C 182.71 75.661 183.912 75.262 184.408 74.275 L 182.62 73.378 L 180.833 72.481 Z M 179.901 82.998 C 180.418 82.022 180.046 80.811 179.071 80.294 C 178.095 79.777 176.884 80.149 176.367 81.125 L 178.134 82.061 L 179.901 82.998 Z M 171.728 89.702 C 171.196 90.67 171.548 91.886 172.516 92.419 C 173.484 92.952 174.7 92.599 175.233 91.631 L 173.48 90.667 L 171.728 89.702 Z M 170.449 100.202 C 170.992 99.24 170.653 98.02 169.691 97.477 C 168.73 96.934 167.51 97.273 166.966 98.235 L 168.708 99.218 L 170.449 100.202 Z M 162.15 106.684 C 161.6 107.642 161.93 108.864 162.888 109.415 C 163.846 109.965 165.068 109.634 165.618 108.677 L 163.884 107.68 L 162.15 106.684 Z M 160.739 117.126 C 161.293 116.17 160.968 114.946 160.012 114.392 C 159.057 113.838 157.833 114.164 157.279 115.119 L 159.009 116.122 L 160.739 117.126 Z M 152.372 123.562 C 151.816 124.517 152.14 125.741 153.094 126.297 C 154.049 126.852 155.273 126.529 155.829 125.574 L 154.1 124.568 L 152.372 123.562 Z M 150.914 134.027 C 151.468 133.071 151.143 131.847 150.188 131.293 C 149.233 130.738 148.009 131.063 147.454 132.018 L 149.184 133.022 L 150.914 134.027 Z M 142.561 140.473 C 142.009 141.429 142.338 142.652 143.295 143.204 C 144.252 143.756 145.475 143.427 146.026 142.47 L 144.294 141.471 L 142.561 140.473 Z M 141.179 150.926 C 141.726 149.967 141.391 148.745 140.431 148.199 C 139.471 147.652 138.25 147.987 137.703 148.947 L 139.441 149.937 L 141.179 150.926 Z M 132.891 157.465 C 132.352 158.428 132.696 159.647 133.66 160.187 C 134.623 160.726 135.842 160.382 136.382 159.419 L 134.637 158.442 L 132.891 157.465 Z M 131.659 167.944 C 132.19 166.975 131.834 165.76 130.866 165.23 C 129.897 164.699 128.681 165.055 128.151 166.023 L 129.905 166.984 L 131.659 167.944 Z M 123.5 174.634 C 122.981 175.609 123.35 176.82 124.325 177.339 C 125.3 177.858 126.512 177.488 127.031 176.513 L 125.265 175.574 L 123.5 174.634 Z M 122.512 185.144 C 123.017 184.162 122.63 182.956 121.648 182.451 C 120.666 181.946 119.46 182.333 118.954 183.315 L 120.733 184.23 L 122.512 185.144 Z M 114.544 192.064 C 114.055 193.055 114.462 194.254 115.453 194.743 C 116.443 195.231 117.643 194.824 118.131 193.834 L 116.338 192.949 L 114.544 192.064 Z M 113.92 202.58 C 114.389 201.58 113.959 200.389 112.959 199.92 C 111.959 199.451 110.768 199.882 110.299 200.882 L 112.11 201.731 L 113.92 202.58 Z M 106.229 209.82 C 105.784 210.83 106.242 212.011 107.252 212.457 C 108.263 212.902 109.444 212.444 109.889 211.434 L 108.059 210.627 L 106.229 209.82 Z M 106.084 220.381 C 106.502 219.359 106.012 218.191 104.99 217.773 C 103.968 217.355 102.8 217.845 102.382 218.868 L 104.233 219.625 L 106.084 220.381 Z M 98.804 228.021 C 98.419 229.056 98.946 230.208 99.981 230.593 C 101.017 230.978 102.168 230.451 102.553 229.416 L 100.679 228.718 L 98.804 228.021 Z M 99.346 238.541 C 99.692 237.492 99.123 236.361 98.074 236.015 C 97.025 235.668 95.894 236.238 95.548 237.287 L 97.447 237.914 L 99.346 238.541 Z M 92.67 246.681 C 92.371 247.744 92.99 248.849 94.053 249.148 C 95.117 249.448 96.221 248.828 96.521 247.765 L 94.595 247.223 L 92.67 246.681 Z M 94.136 257.147 C 94.379 256.07 93.702 255 92.625 254.757 C 91.547 254.514 90.477 255.19 90.234 256.268 L 92.185 256.708 L 94.136 257.147 Z M 88.353 265.988 C 88.179 267.079 88.922 268.105 90.012 268.279 C 91.103 268.454 92.129 267.711 92.303 266.621 L 90.328 266.305 L 88.353 265.988 Z M 91.131 276.163 C 91.223 275.062 90.406 274.095 89.305 274.003 C 88.204 273.911 87.237 274.729 87.145 275.83 L 89.138 275.996 L 91.131 276.163 Z M 86.75 285.758 C 86.757 286.863 87.658 287.752 88.762 287.745 C 89.867 287.738 90.757 286.837 90.75 285.733 L 88.75 285.745 L 86.75 285.758 Z M 91.302 295.254 C 91.178 294.157 90.188 293.368 89.091 293.492 C 87.993 293.616 87.204 294.606 87.328 295.703 L 89.315 295.479 L 91.302 295.254 Z M 89 305.347 C 89.257 306.421 90.337 307.084 91.411 306.827 C 92.485 306.57 93.148 305.49 92.891 304.416 L 90.946 304.881 L 89 305.347 Z M 95.618 313.106 C 95.212 312.079 94.05 311.576 93.023 311.982 C 91.995 312.389 91.492 313.551 91.899 314.578 L 93.758 313.842 L 95.618 313.106 Z M 96.158 323.292 C 96.721 324.243 97.948 324.558 98.898 323.995 C 99.849 323.432 100.163 322.206 99.601 321.255 L 97.88 322.274 L 96.158 323.292 Z M 104.828 328.645 C 104.12 327.798 102.858 327.686 102.011 328.395 C 101.164 329.103 101.052 330.365 101.76 331.212 L 103.294 329.929 L 104.828 328.645 Z M 108.537 338.135 C 109.367 338.863 110.631 338.781 111.36 337.951 C 112.088 337.121 112.006 335.857 111.176 335.128 L 109.856 336.632 L 108.537 338.135 Z M 118.426 340.648 C 117.505 340.038 116.264 340.291 115.654 341.212 C 115.044 342.133 115.297 343.374 116.218 343.983 L 117.322 342.316 L 118.426 340.648 Z M 124.532 348.814 C 125.516 349.315 126.721 348.924 127.222 347.94 C 127.724 346.956 127.333 345.752 126.349 345.25 L 125.441 347.032 L 124.532 348.814 Z M 134.736 349.034 C 133.71 348.624 132.547 349.124 132.138 350.15 C 131.728 351.176 132.228 352.34 133.254 352.749 L 133.995 350.891 L 134.736 349.034 Z M 142.241 355.943 C 143.294 356.276 144.417 355.692 144.75 354.639 C 145.083 353.586 144.5 352.462 143.446 352.129 L 142.843 354.036 L 142.241 355.943 Z M 152.372 354.658 C 151.302 354.387 150.213 355.034 149.942 356.105 C 149.67 357.176 150.318 358.264 151.389 358.535 L 151.881 356.597 L 152.372 354.658 Z M 160.631 360.65 C 161.712 360.874 162.77 360.178 162.994 359.096 C 163.217 358.014 162.521 356.956 161.439 356.733 L 161.035 358.692 L 160.631 360.65 Z M 170.603 358.454 C 169.514 358.268 168.481 358.999 168.294 360.088 C 168.108 361.177 168.839 362.211 169.928 362.397 L 170.266 360.426 L 170.603 358.454 Z M 179.254 363.871 C 180.346 364.031 181.362 363.275 181.522 362.182 C 181.683 361.089 180.926 360.073 179.834 359.913 L 179.544 361.892 L 179.254 363.871 Z M 189.107 361.195 C 188.012 361.051 187.007 361.822 186.863 362.917 C 186.719 364.012 187.49 365.017 188.585 365.161 L 188.846 363.178 L 189.107 361.195 Z M 395.065 378.497 C 396.167 378.425 397.002 377.473 396.93 376.371 C 396.858 375.269 395.906 374.434 394.803 374.506 L 394.934 376.501 L 395.065 378.497 Z M 404.543 373.699 C 403.444 373.809 402.642 374.789 402.752 375.888 C 402.862 376.987 403.843 377.789 404.942 377.679 L 404.742 375.689 L 404.543 373.699 Z M 414.81 376.52 C 415.905 376.372 416.673 375.365 416.525 374.271 C 416.378 373.176 415.371 372.408 414.276 372.556 L 414.543 374.538 L 414.81 376.52 Z M 423.955 371.085 C 422.866 371.269 422.133 372.301 422.317 373.391 C 422.501 374.48 423.533 375.213 424.622 375.029 L 424.289 373.057 L 423.955 371.085 Z M 434.365 373.214 C 435.447 372.993 436.146 371.937 435.926 370.855 C 435.705 369.773 434.649 369.074 433.567 369.294 L 433.966 371.254 L 434.365 373.214 Z M 443.135 367.182 C 442.061 367.437 441.397 368.516 441.653 369.59 C 441.909 370.665 442.987 371.329 444.062 371.073 L 443.599 369.127 L 443.135 367.182 Z M 453.68 368.616 C 454.745 368.325 455.373 367.225 455.082 366.16 C 454.791 365.094 453.692 364.466 452.626 364.757 L 453.153 366.686 L 453.68 368.616 Z M 462.02 362.028 C 460.964 362.353 460.372 363.473 460.698 364.528 C 461.023 365.584 462.142 366.176 463.198 365.851 L 462.609 363.939 L 462.02 362.028 Z M 472.629 362.776 C 473.673 362.417 474.228 361.279 473.869 360.234 C 473.51 359.19 472.372 358.634 471.327 358.994 L 471.978 360.885 L 472.629 362.776 Z M 480.544 355.654 C 479.512 356.047 478.994 357.203 479.387 358.235 C 479.78 359.267 480.935 359.786 481.968 359.392 L 481.256 357.523 L 480.544 355.654 Z M 491.179 355.712 C 492.197 355.285 492.678 354.114 492.251 353.095 C 491.825 352.076 490.653 351.596 489.634 352.022 L 490.406 353.867 L 491.179 355.712 Z M 498.584 348.102 C 497.579 348.562 497.138 349.749 497.598 350.753 C 498.057 351.758 499.244 352.199 500.249 351.739 L 499.416 349.921 L 498.584 348.102 Z M 509.216 347.453 C 510.204 346.96 510.606 345.759 510.113 344.77 C 509.62 343.782 508.419 343.38 507.431 343.873 L 508.323 345.663 L 509.216 347.453 Z M 516.124 339.352 C 515.153 339.878 514.792 341.092 515.318 342.063 C 515.844 343.034 517.058 343.395 518.03 342.869 L 517.077 341.11 L 516.124 339.352 Z M 526.669 337.992 C 527.621 337.432 527.939 336.206 527.379 335.254 C 526.82 334.302 525.594 333.983 524.642 334.543 L 525.655 336.267 L 526.669 337.992 Z M 532.969 329.447 C 532.038 330.04 531.763 331.277 532.357 332.208 C 532.95 333.14 534.187 333.414 535.118 332.82 L 534.044 331.134 L 532.969 329.447 Z M 543.403 327.325 C 544.312 326.697 544.54 325.451 543.912 324.542 C 543.284 323.634 542.039 323.406 541.13 324.034 L 542.266 325.679 L 543.403 327.325 Z M 549.079 318.312 C 548.195 318.975 548.016 320.229 548.679 321.112 C 549.342 321.996 550.595 322.175 551.479 321.512 L 550.279 319.912 L 549.079 318.312 Z M 559.31 315.385 C 560.166 314.686 560.293 313.426 559.595 312.571 C 558.896 311.715 557.636 311.588 556.781 312.286 L 558.045 313.836 L 559.31 315.385 Z M 564.207 305.949 C 563.383 306.684 563.312 307.949 564.047 308.773 C 564.782 309.597 566.047 309.669 566.871 308.933 L 565.539 307.441 L 564.207 305.949 Z M 574.129 302.145 C 574.918 301.371 574.93 300.105 574.156 299.316 C 573.382 298.528 572.116 298.516 571.328 299.29 L 572.729 300.717 L 574.129 302.145 Z M 578.102 292.297 C 577.355 293.11 577.408 294.375 578.221 295.122 C 579.034 295.87 580.3 295.817 581.047 295.004 L 579.575 293.65 L 578.102 292.297 Z M 587.579 287.486 C 588.279 286.632 588.154 285.371 587.3 284.671 C 586.445 283.971 585.185 284.097 584.485 284.951 L 586.032 286.218 L 587.579 287.486 Z M 590.416 277.231 C 589.772 278.128 589.978 279.378 590.875 280.022 C 591.772 280.666 593.022 280.46 593.666 279.563 L 592.041 278.397 L 590.416 277.231 Z M 599.205 271.235 C 599.782 270.294 599.487 269.062 598.545 268.485 C 597.603 267.908 596.372 268.203 595.794 269.145 L 597.5 270.19 L 599.205 271.235 Z M 600.512 260.692 C 600.016 261.679 600.413 262.881 601.4 263.378 C 602.387 263.874 603.589 263.477 604.086 262.49 L 602.299 261.591 L 600.512 260.692 Z M 608.171 253.305 C 608.569 252.274 608.056 251.116 607.026 250.719 C 605.995 250.321 604.837 250.834 604.44 251.864 L 606.306 252.584 L 608.171 253.305 Z M 607.401 242.693 C 607.125 243.762 607.767 244.853 608.837 245.13 C 609.906 245.406 610.997 244.764 611.274 243.694 L 609.337 243.194 L 607.401 242.693 Z M 613.157 233.744 C 613.286 232.647 612.502 231.652 611.405 231.523 C 610.308 231.393 609.314 232.177 609.184 233.274 L 611.171 233.509 L 613.157 233.744 Z M 609.576 223.754 C 609.619 224.858 610.549 225.718 611.652 225.676 C 612.756 225.633 613.616 224.703 613.573 223.6 L 611.575 223.677 L 609.576 223.754 Z M 612.312 213.498 C 612.08 212.418 611.016 211.731 609.936 211.963 C 608.857 212.195 608.169 213.259 608.402 214.339 L 610.357 213.918 L 612.312 213.498 Z M 605.583 205.288 C 606.005 206.309 607.175 206.794 608.196 206.372 C 609.217 205.95 609.702 204.781 609.28 203.76 L 607.432 204.524 L 605.583 205.288 Z M 604.589 194.742 C 603.997 193.809 602.761 193.532 601.829 194.124 C 600.896 194.716 600.62 195.952 601.211 196.884 L 602.9 195.813 L 604.589 194.742 Z M 595.49 189.283 C 596.22 190.112 597.484 190.193 598.313 189.463 C 599.142 188.734 599.223 187.47 598.494 186.641 L 596.992 187.962 L 595.49 189.283 Z M 591.315 179.532 C 590.481 178.807 589.218 178.896 588.494 179.73 C 587.769 180.564 587.858 181.827 588.692 182.551 L 590.003 181.042 L 591.315 179.532 Z M 581.081 176.677 C 581.991 177.303 583.237 177.074 583.863 176.164 C 584.489 175.254 584.26 174.009 583.35 173.382 L 582.216 175.03 L 581.081 176.677 Z M 574.452 167.962 C 573.472 167.451 572.264 167.832 571.754 168.811 C 571.243 169.791 571.623 170.999 572.603 171.509 L 573.527 169.735 L 574.452 167.962 Z M 563.749 167.751 C 564.799 168.095 565.929 167.524 566.273 166.474 C 566.618 165.425 566.046 164.295 564.997 163.95 L 564.373 165.851 L 563.749 167.751 Z M 554.911 161.671 C 553.815 161.536 552.817 162.315 552.681 163.411 C 552.546 164.507 553.326 165.506 554.422 165.641 L 554.666 163.656 L 554.911 161.671 Z M 544.909 165.504 C 546.008 165.397 546.812 164.419 546.705 163.319 C 546.598 162.22 545.619 161.416 544.52 161.523 L 544.714 163.514 L 544.909 165.504 Z M 534.343 163.72 C 533.297 164.076 532.738 165.213 533.094 166.258 C 533.45 167.304 534.586 167.863 535.632 167.507 L 534.987 165.614 L 534.343 163.72 Z M 527.033 171.571 C 527.973 170.992 528.266 169.759 527.686 168.819 C 527.107 167.879 525.874 167.586 524.934 168.166 L 525.984 169.869 L 527.033 171.571 Z M 516.711 174.508 C 515.909 175.268 515.875 176.533 516.634 177.335 C 517.394 178.138 518.66 178.172 519.462 177.413 L 518.087 175.96 L 516.711 174.508 Z M 513.128 184.65 C 513.778 183.757 513.58 182.506 512.687 181.857 C 511.794 181.207 510.543 181.404 509.893 182.298 L 511.511 183.474 L 513.128 184.65 Z M 504.542 191.115 C 504.046 192.102 504.445 193.304 505.432 193.8 C 506.42 194.295 507.622 193.896 508.117 192.909 L 506.329 192.012 L 504.542 191.115 Z M 504.433 201.869 C 504.778 200.82 504.207 199.69 503.157 199.345 C 502.108 199 500.978 199.571 500.633 200.62 L 502.533 201.245 L 504.433 201.869 Z M 498.103 210.547 C 497.902 211.633 498.62 212.677 499.706 212.878 C 500.792 213.079 501.835 212.361 502.037 211.275 L 500.07 210.911 L 498.103 210.547 Z M 500.871 220.926 C 500.936 219.823 500.095 218.877 498.992 218.812 C 497.889 218.747 496.943 219.588 496.878 220.691 L 498.875 220.809 L 500.871 220.926 Z M 496.877 230.891 C 496.94 231.994 497.885 232.836 498.988 232.773 C 500.091 232.71 500.934 231.765 500.87 230.662 L 498.874 230.776 L 496.877 230.891 Z M 501.964 240.358 C 501.781 239.269 500.75 238.534 499.661 238.716 C 498.571 238.899 497.836 239.93 498.019 241.02 L 499.991 240.689 L 501.964 240.358 Z M 500.226 250.983 C 500.519 252.047 501.621 252.673 502.685 252.38 C 503.75 252.086 504.376 250.985 504.083 249.92 L 502.154 250.451 L 500.226 250.983 Z M 507.161 259.284 C 506.767 258.253 505.61 257.736 504.579 258.131 C 503.547 258.526 503.031 259.682 503.426 260.714 L 505.294 259.999 L 507.161 259.284 Z M 507.456 269.968 C 507.941 270.96 509.139 271.371 510.131 270.886 C 511.123 270.401 511.534 269.203 511.049 268.211 L 509.252 269.089 L 507.456 269.968 Z M 515.715 276.807 C 515.148 275.859 513.92 275.55 512.972 276.116 C 512.024 276.683 511.714 277.911 512.281 278.859 L 513.998 277.833 L 515.715 276.807 Z M 517.866 287.412 C 518.506 288.312 519.754 288.524 520.655 287.885 C 521.555 287.245 521.767 285.997 521.128 285.096 L 519.497 286.254 L 517.866 287.412 Z M 527.082 292.864 C 526.379 292.012 525.118 291.891 524.266 292.594 C 523.414 293.297 523.293 294.557 523.996 295.409 L 525.539 294.137 L 527.082 292.864 Z M 530.673 302.969 C 531.431 303.772 532.697 303.809 533.5 303.051 C 534.304 302.293 534.34 301.027 533.582 300.223 L 532.127 301.596 L 530.673 302.969 Z M 540.651 307.251 C 539.844 306.497 538.579 306.54 537.825 307.347 C 537.07 308.154 537.113 309.42 537.921 310.174 L 539.286 308.712 L 540.651 307.251 Z M 545.389 316.761 C 546.237 317.468 547.498 317.354 548.205 316.505 C 548.913 315.657 548.798 314.396 547.95 313.689 L 546.669 315.225 L 545.389 316.761 Z M 555.849 319.915 C 554.964 319.255 553.711 319.437 553.05 320.323 C 552.39 321.208 552.572 322.461 553.457 323.122 L 554.653 321.518 L 555.849 319.915 Z M 561.519 328.837 C 562.435 329.454 563.678 329.212 564.296 328.296 C 564.913 327.38 564.671 326.137 563.755 325.52 L 562.637 327.178 L 561.519 328.837 Z M 572.263 330.968 C 571.32 330.394 570.089 330.693 569.515 331.637 C 568.941 332.58 569.24 333.811 570.183 334.385 L 571.223 332.677 L 572.263 330.968 Z M 578.693 339.326 C 579.659 339.862 580.876 339.512 581.411 338.546 C 581.947 337.58 581.597 336.363 580.631 335.827 L 579.662 337.577 L 578.693 339.326 Z M 589.538 340.531 C 588.552 340.035 587.349 340.432 586.853 341.418 C 586.356 342.405 586.753 343.607 587.74 344.104 L 588.639 342.318 L 589.538 340.531 Z M 596.657 348.394 C 597.661 348.856 598.848 348.416 599.31 347.413 C 599.771 346.409 599.332 345.221 598.328 344.76 L 597.493 346.577 L 596.657 348.394 Z M 607.45 348.767 C 606.431 348.339 605.259 348.819 604.832 349.837 C 604.405 350.856 604.884 352.028 605.903 352.455 L 606.676 350.611 L 607.45 348.767 Z M 615.266 356.21 C 616.298 356.605 617.454 356.089 617.849 355.057 C 618.244 354.026 617.729 352.869 616.697 352.474 L 615.982 354.342 L 615.266 356.21 Z M 625.898 355.846 C 624.856 355.481 623.715 356.03 623.349 357.072 C 622.984 358.115 623.533 359.256 624.576 359.621 L 625.237 357.733 L 625.898 355.846 Z M 634.297 362.874 C 635.349 363.21 636.475 362.63 636.811 361.577 C 637.147 360.525 636.566 359.4 635.514 359.064 L 634.906 360.969 L 634.297 362.874 Z M 644.85 361.915 C 643.79 361.606 642.68 362.214 642.37 363.275 C 642.061 364.335 642.669 365.445 643.73 365.755 L 644.29 363.835 L 644.85 361.915 Z M 653.359 368.44 C 654.427 368.724 655.522 368.089 655.806 367.021 C 656.09 365.954 655.455 364.858 654.388 364.574 L 653.873 366.507 L 653.359 368.44 Z M 664.288 367.084 C 663.214 366.825 662.134 367.486 661.874 368.559 C 661.615 369.633 662.276 370.714 663.349 370.973 L 663.819 369.029 L 664.288 367.084 Z M 672.862 373.164 C 673.941 373.4 675.008 372.718 675.244 371.639 C 675.481 370.56 674.799 369.494 673.72 369.257 L 673.291 371.21 L 672.862 373.164 Z M 683.426 371.285 C 682.342 371.07 681.29 371.773 681.074 372.857 C 680.859 373.94 681.563 374.993 682.646 375.208 L 683.036 373.246 L 683.426 371.285 Z M 692.745 377.111 C 693.833 377.305 694.872 376.581 695.066 375.493 C 695.26 374.406 694.535 373.367 693.448 373.173 L 693.097 375.142 L 692.745 377.111 Z M 703.062 374.8 C 701.972 374.625 700.946 375.368 700.771 376.459 C 700.596 377.549 701.339 378.575 702.429 378.75 L 702.746 376.775 L 703.062 374.8 Z M 712.244 380.237 C 713.338 380.394 714.351 379.634 714.507 378.54 C 714.664 377.447 713.904 376.434 712.81 376.278 L 712.527 378.257 L 712.244 380.237 Z M 722.834 377.626 C 721.738 377.487 720.737 378.264 720.599 379.359 C 720.461 380.455 721.237 381.456 722.333 381.594 L 722.583 379.61 L 722.834 377.626 Z M 732.324 382.776 C 733.422 382.897 734.41 382.105 734.531 381.007 C 734.652 379.909 733.861 378.921 732.763 378.8 L 732.543 380.788 L 732.324 382.776 Z M 742.461 379.8 C 741.361 379.694 740.385 380.5 740.279 381.6 C 740.174 382.699 740.979 383.676 742.079 383.782 L 742.27 381.791 L 742.461 379.8 Z M 752.072 384.669 C 753.173 384.759 754.138 383.939 754.228 382.838 C 754.318 381.738 753.499 380.772 752.398 380.682 L 752.235 382.676 L 752.072 384.669 Z M 762.576 381.443 C 761.474 381.369 760.52 382.201 760.445 383.303 C 760.37 384.405 761.203 385.359 762.305 385.434 L 762.44 383.439 L 762.576 381.443 Z M 772.157 386.041 C 773.26 386.102 774.203 385.257 774.264 384.154 C 774.325 383.051 773.481 382.108 772.378 382.047 L 772.268 384.044 L 772.157 386.041 Z M 782.168 382.529 C 781.065 382.481 780.131 383.337 780.084 384.44 C 780.036 385.544 780.892 386.477 781.996 386.525 L 782.082 384.527 L 782.168 382.529 Z M 792.042 386.899 C 793.146 386.934 794.07 386.067 794.104 384.963 C 794.139 383.859 793.272 382.936 792.168 382.901 L 792.105 384.9 L 792.042 386.899 Z M 802.379 383.162 C 801.274 383.14 800.361 384.018 800.34 385.122 C 800.318 386.226 801.195 387.139 802.3 387.161 L 802.339 385.162 L 802.379 383.162 Z M 812.181 387.304 C 813.285 387.314 814.189 386.427 814.199 385.322 C 814.209 384.218 813.322 383.314 812.217 383.304 L 812.199 385.304 L 812.181 387.304 Z M 822.003 383.343 C 820.898 383.344 820.004 384.241 820.005 385.345 C 820.006 386.45 820.903 387.344 822.007 387.343 L 822.005 385.343 L 822.003 383.343 Z M 832.017 387.282 C 833.121 387.27 834.007 386.364 833.994 385.26 C 833.982 384.155 833.077 383.27 831.972 383.282 L 831.995 385.282 L 832.017 387.282 Z M 842.127 383.119 C 841.022 383.142 840.146 384.056 840.169 385.16 C 840.192 386.265 841.106 387.141 842.21 387.118 L 842.169 385.119 L 842.127 383.119 Z M 852.315 386.859 C 853.419 386.825 854.287 385.903 854.254 384.799 C 854.22 383.695 853.298 382.827 852.194 382.861 L 852.255 384.86 L 852.315 386.859 Z M 861.905 382.524 C 860.801 382.567 859.941 383.496 859.984 384.6 C 860.027 385.704 860.957 386.564 862.061 386.521 L 861.983 384.522 L 861.905 382.524 Z M 871.967 386.091 C 873.07 386.038 873.922 385.101 873.869 383.998 C 873.817 382.895 872.88 382.043 871.776 382.095 L 871.872 384.093 L 871.967 386.091 Z M 881.81 381.575 C 880.708 381.636 879.864 382.581 879.926 383.683 C 879.987 384.786 880.932 385.63 882.034 385.568 L 881.922 383.571 L 881.81 381.575 Z M 892.265 384.952 C 893.367 384.88 894.203 383.929 894.132 382.827 C 894.061 381.725 893.11 380.889 892.008 380.96 L 892.136 382.956 L 892.265 384.952 Z M 901.892 380.284 C 900.79 380.364 899.961 381.322 900.041 382.423 C 900.12 383.525 901.078 384.353 902.18 384.274 L 902.036 382.279 L 901.892 380.284 Z M 911.936 383.533 C 913.038 383.445 913.859 382.481 913.771 381.38 C 913.684 380.279 912.72 379.458 911.619 379.545 L 911.778 381.539 L 911.936 383.533 Z M 921.488 378.723 C 920.388 378.818 919.574 379.788 919.669 380.889 C 919.765 381.989 920.735 382.803 921.835 382.708 L 921.662 380.715 L 921.488 378.723 Z M 931.877 381.797 C 932.976 381.694 933.784 380.718 933.68 379.619 C 933.577 378.519 932.601 377.711 931.501 377.815 L 931.689 379.806 L 931.877 381.797 Z M 941.659 376.822 C 940.56 376.933 939.759 377.914 939.87 379.013 C 939.982 380.112 940.963 380.913 942.062 380.801 L 941.86 378.811 L 941.659 376.822 Z M 271.074 374.648 C 272.174 374.746 273.145 373.932 273.242 372.832 C 273.339 371.732 272.526 370.761 271.426 370.664 L 271.25 372.656 L 271.074 374.648 Z M 279.926 371.414 C 278.826 371.317 277.855 372.13 277.758 373.23 C 277.661 374.331 278.474 375.301 279.574 375.398 L 279.75 373.406 L 279.926 371.414 Z M 0 162.282 L 1.995 162.424 C 2.105 160.88 2.252 159.248 2.434 157.535 L 0.445 157.324 L -1.544 157.112 C -1.73 158.865 -1.881 160.544 -1.995 162.139 L 0 162.282 Z M 1.763 147.399 L 3.739 147.707 C 4.227 144.586 4.801 141.307 5.458 137.909 L 3.495 137.529 L 1.531 137.149 C 0.865 140.592 0.283 143.918 -0.213 147.09 L 1.763 147.399 Z M 5.552 127.722 L 7.503 128.162 C 8.218 124.989 8.996 121.751 9.835 118.471 L 7.897 117.975 L 5.959 117.48 C 5.111 120.797 4.324 124.072 3.601 127.282 L 5.552 127.722 Z M 10.514 108.305 L 12.437 108.854 C 13.343 105.684 14.301 102.499 15.31 99.321 L 13.404 98.716 L 11.497 98.111 C 10.476 101.327 9.507 104.549 8.591 107.755 L 10.514 108.305 Z M 16.581 89.215 L 18.468 89.879 C 19.575 86.736 20.73 83.623 21.931 80.56 L 20.069 79.829 L 18.207 79.099 C 16.988 82.208 15.817 85.366 14.695 88.55 L 16.581 89.215 Z M 23.914 70.573 L 25.744 71.378 C 27.101 68.295 28.506 65.292 29.957 62.396 L 28.168 61.5 L 26.38 60.605 C 24.898 63.566 23.464 66.628 22.083 69.767 L 23.914 70.573 Z M 32.921 52.685 L 34.649 53.691 C 36.364 50.746 38.129 47.969 39.94 45.39 L 38.304 44.24 L 36.667 43.091 C 34.782 45.774 32.957 48.649 31.192 51.678 L 32.921 52.685 Z M 44.521 36.389 L 46.004 37.73 C 48.307 35.185 50.659 32.995 53.05 31.207 L 51.852 29.605 L 50.654 28.004 C 48.02 29.973 45.48 32.347 43.038 35.047 L 44.521 36.389 Z M 60.629 24.862 L 61.265 26.759 C 62.739 26.265 64.223 25.933 65.718 25.769 L 65.501 23.781 L 65.283 21.793 C 63.488 21.989 61.724 22.387 59.994 22.966 L 60.629 24.862 Z M 65.501 23.781 L 65.718 25.769 C 67.529 25.571 69.144 25.531 70.58 25.63 L 70.717 23.635 L 70.855 21.64 C 69.144 21.522 67.288 21.573 65.283 21.793 L 65.501 23.781 Z M 79.953 27.547 L 78.474 28.893 C 80.151 30.737 81.166 33.458 81.456 37.16 L 83.45 37.004 L 85.444 36.848 C 85.113 32.623 83.914 28.928 81.432 26.201 L 79.953 27.547 Z M 82.854 47.278 L 80.879 46.963 C 80.392 50.018 79.648 53.334 78.683 56.877 L 80.613 57.402 L 82.543 57.927 C 83.535 54.283 84.314 50.822 84.829 47.593 L 82.854 47.278 Z M 77.585 67.251 L 75.69 66.611 C 74.643 69.713 73.48 72.926 72.224 76.231 L 74.093 76.942 L 75.963 77.652 C 77.233 74.309 78.413 71.048 79.48 67.891 L 77.585 67.251 Z M 70.298 86.54 L 68.447 85.783 C 67.174 88.896 65.843 92.065 64.469 95.276 L 66.308 96.063 L 68.146 96.85 C 69.527 93.623 70.867 90.434 72.15 87.297 L 70.298 86.54 Z M 62.191 105.533 L 60.361 104.727 C 58.986 107.851 57.586 110.997 56.175 114.155 L 58.001 114.971 L 59.827 115.786 C 61.24 112.625 62.643 109.472 64.022 106.339 L 62.191 105.533 Z M 53.78 124.394 L 51.955 123.575 C 50.542 126.726 49.132 129.875 47.739 133.007 L 49.567 133.82 L 51.394 134.633 C 52.785 131.506 54.193 128.362 55.605 125.212 L 53.78 124.394 Z M 45.403 143.267 L 43.57 142.468 C 42.172 145.674 40.808 148.849 39.492 151.978 L 41.335 152.754 L 43.179 153.529 C 44.487 150.419 45.844 147.26 47.236 144.066 L 45.403 143.267 Z M 37.424 162.298 L 35.566 161.559 C 34.254 164.862 33.018 168.093 31.879 171.234 L 33.759 171.915 L 35.639 172.597 C 36.762 169.502 37.983 166.308 39.283 163.036 L 37.424 162.298 Z M 30.445 181.719 L 28.534 181.127 C 27.435 184.68 26.508 188.076 25.796 191.279 L 27.748 191.713 L 29.7 192.148 C 30.384 189.073 31.28 185.784 32.355 182.31 L 30.445 181.719 Z M 26.225 201.884 L 24.228 201.771 C 23.992 205.933 24.364 209.688 25.618 212.792 L 27.472 212.043 L 29.326 211.294 C 28.376 208.942 28.003 205.841 28.222 201.997 L 26.225 201.884 Z M 34.869 218.642 L 34.326 220.567 C 36.027 221.046 37.92 221.281 40 221.281 L 40 219.281 L 40 217.281 C 38.215 217.281 36.697 217.079 35.412 216.717 L 34.869 218.642 Z M 40 219.281 L 40 221.281 C 41.876 221.281 43.693 221.13 45.453 220.834 L 45.122 218.862 L 44.791 216.89 C 43.256 217.147 41.66 217.281 40 217.281 L 40 219.281 Z M 54.644 215.471 L 55.629 217.212 C 58.687 215.481 61.495 213.243 64.086 210.584 L 62.654 209.188 L 61.221 207.792 C 58.856 210.221 56.342 212.212 53.659 213.731 L 54.644 215.471 Z M 68.966 201.251 L 70.633 202.356 C 72.475 199.576 74.198 196.546 75.819 193.306 L 74.031 192.411 L 72.242 191.516 C 70.681 194.637 69.038 197.523 67.299 200.146 L 68.966 201.251 Z M 78.205 183.084 L 80.061 183.832 C 81.31 180.731 82.498 177.494 83.637 174.142 L 81.743 173.499 L 79.849 172.855 C 78.731 176.148 77.568 179.315 76.35 182.337 L 78.205 183.084 Z M 84.824 163.768 L 86.742 164.337 C 87.696 161.121 88.617 157.825 89.513 154.466 L 87.581 153.95 L 85.648 153.435 C 84.76 156.764 83.849 160.024 82.907 163.2 L 84.824 163.768 Z M 90.109 144.075 L 92.051 144.554 C 92.858 141.28 93.649 137.963 94.431 134.616 L 92.483 134.161 L 90.536 133.706 C 89.757 137.041 88.969 140.342 88.167 143.596 L 90.109 144.075 Z M 94.765 124.222 L 96.716 124.664 C 97.465 121.359 98.211 118.035 98.959 114.709 L 97.008 114.27 L 95.056 113.831 C 94.308 117.159 93.563 120.479 92.815 123.78 L 94.765 124.222 Z M 99.259 104.317 L 101.209 104.762 C 101.967 101.441 102.733 98.129 103.513 94.836 L 101.566 94.375 L 99.62 93.914 C 98.837 97.22 98.069 100.544 97.309 103.872 L 99.259 104.317 Z M 103.98 84.459 L 105.92 84.946 C 106.753 81.628 107.606 78.345 108.485 75.11 L 106.555 74.585 L 104.625 74.061 C 103.738 77.325 102.878 80.633 102.04 83.972 L 103.98 84.459 Z M 109.354 64.774 L 111.269 65.35 C 112.258 62.058 113.282 58.836 114.349 55.698 L 112.455 55.054 L 110.562 54.411 C 109.478 57.6 108.439 60.868 107.438 64.199 L 109.354 64.774 Z M 115.958 45.471 L 117.819 46.204 C 119.085 42.993 120.409 39.902 121.799 36.951 L 119.99 36.098 L 118.18 35.246 C 116.749 38.285 115.391 41.456 114.097 44.737 L 115.958 45.471 Z M 124.717 27.067 L 126.443 28.076 C 128.179 25.106 130.008 22.345 131.94 19.817 L 130.351 18.602 L 128.762 17.388 C 126.716 20.064 124.798 22.965 122.99 26.058 L 124.717 27.067 Z M 137.169 11.049 L 138.525 12.519 C 140.982 10.251 143.584 8.32 146.349 6.755 L 145.364 5.015 L 144.379 3.274 C 141.321 5.005 138.472 7.124 135.812 9.579 L 137.169 11.049 Z M 154.792 1.218 L 155.284 3.157 C 158.273 2.398 161.45 1.999 164.838 2 L 164.839 0 L 164.84 -2 C 161.133 -2.001 157.623 -1.564 154.3 -0.72 L 154.792 1.218 Z M 174.917 1.047 L 174.525 3.008 C 176.125 3.328 177.767 3.726 179.452 4.206 L 180 2.282 L 180.548 0.359 C 178.765 -0.149 177.019 -0.573 175.309 -0.915 L 174.917 1.047 Z M 180 2.282 L 179.452 4.206 C 181.069 4.666 182.547 5.195 183.895 5.787 L 184.7 3.956 L 185.504 2.125 C 183.974 1.453 182.322 0.864 180.548 0.359 L 180 2.282 Z M 192.656 9.408 L 191.196 10.775 C 193.201 12.917 194.579 15.449 195.397 18.373 L 197.323 17.834 L 199.249 17.295 C 198.272 13.801 196.594 10.689 194.117 8.042 L 192.656 9.408 Z M 198.271 27.496 L 196.273 27.404 C 196.141 30.275 195.688 33.379 194.938 36.708 L 196.889 37.147 L 198.84 37.587 C 199.63 34.081 200.123 30.74 200.269 27.588 L 198.271 27.496 Z M 194.229 46.502 L 192.333 45.865 C 191.361 48.756 190.227 51.764 188.947 54.88 L 190.797 55.64 L 192.647 56.4 C 193.954 53.216 195.12 50.126 196.124 47.139 L 194.229 46.502 Z M 186.874 64.584 L 185.059 63.743 C 183.741 66.586 182.329 69.5 180.833 72.481 L 182.62 73.378 L 184.408 74.275 C 185.919 71.263 187.35 68.311 188.688 65.425 L 186.874 64.584 Z M 178.134 82.061 L 176.367 81.125 C 174.877 83.936 173.328 86.797 171.728 89.702 L 173.48 90.667 L 175.233 91.631 C 176.84 88.71 178.4 85.831 179.901 82.998 L 178.134 82.061 Z M 168.708 99.218 L 166.966 98.235 C 165.394 101.017 163.787 103.835 162.15 106.684 L 163.884 107.68 L 165.618 108.677 C 167.259 105.821 168.871 102.995 170.449 100.202 L 168.708 99.218 Z M 159.009 116.122 L 157.279 115.119 C 155.661 117.909 154.023 120.724 152.372 123.562 L 154.1 124.568 L 155.829 125.574 C 157.48 122.736 159.119 119.918 160.739 117.126 L 159.009 116.122 Z M 149.184 133.022 L 147.454 132.018 C 145.828 134.818 144.195 137.637 142.561 140.473 L 144.294 141.471 L 146.026 142.47 C 147.658 139.64 149.289 136.825 150.914 134.027 L 149.184 133.022 Z M 139.441 149.937 L 137.703 148.947 C 136.093 151.774 134.487 154.614 132.891 157.465 L 134.637 158.442 L 136.382 159.419 C 137.972 156.578 139.573 153.746 141.179 150.926 L 139.441 149.937 Z M 129.905 166.984 L 128.151 166.023 C 126.583 168.887 125.031 171.758 123.5 174.634 L 125.265 175.574 L 127.031 176.513 C 128.554 173.653 130.098 170.795 131.659 167.944 L 129.905 166.984 Z M 120.733 184.23 L 118.954 183.315 C 117.455 186.23 115.983 189.147 114.544 192.064 L 116.338 192.949 L 118.131 193.834 C 119.56 190.938 121.022 188.041 122.512 185.144 L 120.733 184.23 Z M 112.11 201.731 L 110.299 200.882 C 108.9 203.865 107.541 206.845 106.229 209.82 L 108.059 210.627 L 109.889 211.434 C 111.188 208.49 112.533 205.538 113.92 202.58 L 112.11 201.731 Z M 104.233 219.625 L 102.382 218.868 C 101.13 221.929 99.935 224.981 98.804 228.021 L 100.679 228.718 L 102.553 229.416 C 103.668 226.419 104.848 223.406 106.084 220.381 L 104.233 219.625 Z M 97.447 237.914 L 95.548 237.287 C 94.509 240.436 93.547 243.569 92.67 246.681 L 94.595 247.223 L 96.521 247.765 C 97.38 244.714 98.324 241.638 99.346 238.541 L 97.447 237.914 Z M 92.185 256.708 L 90.234 256.268 C 89.498 259.536 88.867 262.778 88.353 265.988 L 90.328 266.305 L 92.303 266.621 C 92.803 263.499 93.417 260.34 94.136 257.147 L 92.185 256.708 Z M 89.138 275.996 L 87.145 275.83 C 86.865 279.181 86.729 282.492 86.75 285.758 L 88.75 285.745 L 90.75 285.733 C 90.73 282.595 90.86 279.404 91.131 276.163 L 89.138 275.996 Z M 89.315 295.479 L 87.328 295.703 C 87.515 297.358 87.748 298.998 88.029 300.623 L 90 300.281 L 91.971 299.94 C 91.703 298.395 91.481 296.833 91.302 295.254 L 89.315 295.479 Z M 90 300.281 L 88.029 300.623 C 88.309 302.238 88.633 303.812 89 305.347 L 90.946 304.881 L 92.891 304.416 C 92.544 302.965 92.236 301.474 91.971 299.94 L 90 300.281 Z M 93.758 313.842 L 91.899 314.578 C 93.124 317.674 94.55 320.574 96.158 323.292 L 97.88 322.274 L 99.601 321.255 C 98.1 318.719 96.766 316.008 95.618 313.106 L 93.758 313.842 Z M 103.294 329.929 L 101.76 331.212 C 103.849 333.709 106.116 336.01 108.537 338.135 L 109.856 336.632 L 111.176 335.128 C 108.901 333.132 106.779 330.977 104.828 328.645 L 103.294 329.929 Z M 117.322 342.316 L 116.218 343.983 C 118.874 345.742 121.653 347.346 124.532 348.814 L 125.441 347.032 L 126.349 345.25 C 123.592 343.845 120.945 342.316 118.426 340.648 L 117.322 342.316 Z M 133.995 350.891 L 133.254 352.749 C 136.184 353.917 139.186 354.977 142.241 355.943 L 142.843 354.036 L 143.446 352.129 C 140.475 351.189 137.565 350.162 134.736 349.034 L 133.995 350.891 Z M 151.881 356.597 L 151.389 358.535 C 154.442 359.31 157.529 360.01 160.631 360.65 L 161.035 358.692 L 161.439 356.733 C 158.388 356.103 155.36 355.416 152.372 354.658 L 151.881 356.597 Z M 170.266 360.426 L 169.928 362.397 C 173.044 362.931 176.159 363.417 179.254 363.871 L 179.544 361.892 L 179.834 359.913 C 176.764 359.463 173.681 358.982 170.603 358.454 L 170.266 360.426 Z M 188.846 363.178 L 188.585 365.161 C 190.149 365.367 191.704 365.568 193.246 365.765 L 193.5 363.781 L 193.754 361.797 C 192.214 361.601 190.665 361.4 189.107 361.195 L 188.846 363.178 Z M 390 376.781 L 390.096 378.779 C 391.755 378.699 393.412 378.605 395.065 378.497 L 394.934 376.501 L 394.803 374.506 C 393.174 374.612 391.54 374.705 389.904 374.784 L 390 376.781 Z M 404.742 375.689 L 404.942 377.679 C 408.248 377.348 411.538 376.961 414.81 376.52 L 414.543 374.538 L 414.276 372.556 C 411.048 372.991 407.803 373.372 404.543 373.699 L 404.742 375.689 Z M 424.289 373.057 L 424.622 375.029 C 427.89 374.476 431.138 373.87 434.365 373.214 L 433.966 371.254 L 433.567 369.294 C 430.384 369.942 427.179 370.54 423.955 371.085 L 424.289 373.057 Z M 443.599 369.127 L 444.062 371.073 C 447.293 370.303 450.5 369.484 453.68 368.616 L 453.153 366.686 L 452.626 364.757 C 449.488 365.613 446.324 366.422 443.135 367.182 L 443.599 369.127 Z M 462.609 363.939 L 463.198 365.851 C 466.372 364.873 469.516 363.847 472.629 362.776 L 471.978 360.885 L 471.327 358.994 C 468.255 360.051 465.152 361.063 462.02 362.028 L 462.609 363.939 Z M 481.256 357.523 L 481.968 359.392 C 485.074 358.21 488.145 356.982 491.179 355.712 L 490.406 353.867 L 489.634 352.022 C 486.64 353.275 483.61 354.487 480.544 355.654 L 481.256 357.523 Z M 499.416 349.921 L 500.249 351.739 C 503.28 350.352 506.27 348.922 509.216 347.453 L 508.323 345.663 L 507.431 343.873 C 504.525 345.322 501.575 346.733 498.584 348.102 L 499.416 349.921 Z M 517.077 341.11 L 518.03 342.869 C 520.959 341.281 523.84 339.654 526.669 337.992 L 525.655 336.267 L 524.642 334.543 C 521.853 336.182 519.013 337.786 516.124 339.352 L 517.077 341.11 Z M 534.044 331.134 L 535.118 332.82 C 537.939 331.023 540.702 329.19 543.403 327.325 L 542.266 325.679 L 541.13 324.034 C 538.47 325.871 535.749 327.676 532.969 329.447 L 534.044 331.134 Z M 550.279 319.912 L 551.479 321.512 C 554.161 319.501 556.772 317.457 559.31 315.385 L 558.045 313.836 L 556.781 312.286 C 554.286 314.324 551.717 316.333 549.079 318.312 L 550.279 319.912 Z M 565.539 307.441 L 566.871 308.933 C 569.376 306.697 571.797 304.433 574.129 302.145 L 572.729 300.717 L 571.328 299.29 C 569.042 301.533 566.667 303.754 564.207 305.949 L 565.539 307.441 Z M 579.575 293.65 L 581.047 295.004 C 583.331 292.519 585.51 290.012 587.579 287.486 L 586.032 286.218 L 584.485 284.951 C 582.466 287.416 580.337 289.866 578.102 292.297 L 579.575 293.65 Z M 592.041 278.397 L 593.666 279.563 C 595.648 276.801 597.496 274.023 599.205 271.235 L 597.5 270.19 L 595.794 269.145 C 594.139 271.846 592.344 274.544 590.416 277.231 L 592.041 278.397 Z M 602.299 261.591 L 604.086 262.49 C 605.625 259.431 606.99 256.366 608.171 253.305 L 606.306 252.584 L 604.44 251.864 C 603.308 254.797 601.996 257.743 600.512 260.692 L 602.299 261.591 Z M 609.337 243.194 L 611.274 243.694 C 612.135 240.361 612.767 237.041 613.157 233.744 L 611.171 233.509 L 609.184 233.274 C 608.817 236.382 608.22 239.525 607.401 242.693 L 609.337 243.194 Z M 611.575 223.677 L 613.573 223.6 C 613.441 220.186 613.025 216.814 612.312 213.498 L 610.357 213.918 L 608.402 214.339 C 609.065 217.422 609.453 220.564 609.576 223.754 L 611.575 223.677 Z M 607.432 204.524 L 609.28 203.76 C 608.007 200.679 606.446 197.669 604.589 194.742 L 602.9 195.813 L 601.211 196.884 C 602.946 199.62 604.4 202.424 605.583 205.288 L 607.432 204.524 Z M 596.992 187.962 L 598.494 186.641 C 596.341 184.193 593.95 181.821 591.315 179.532 L 590.003 181.042 L 588.692 182.551 C 591.198 184.729 593.461 186.975 595.49 189.283 L 596.992 187.962 Z M 582.216 175.03 L 583.35 173.382 C 581.967 172.43 580.534 171.495 579.051 170.58 L 578 172.281 L 576.949 173.983 C 578.378 174.865 579.755 175.763 581.081 176.677 L 582.216 175.03 Z M 578 172.281 L 579.051 170.58 C 577.515 169.631 575.981 168.759 574.452 167.962 L 573.527 169.735 L 572.603 171.509 C 574.044 172.26 575.493 173.084 576.949 173.983 L 578 172.281 Z M 564.373 165.851 L 564.997 163.95 C 561.587 162.831 558.219 162.079 554.911 161.671 L 554.666 163.656 L 554.422 165.641 C 557.462 166.016 560.578 166.71 563.749 167.751 L 564.373 165.851 Z M 544.714 163.514 L 544.52 161.523 C 541.004 161.866 537.602 162.611 534.343 163.72 L 534.987 165.614 L 535.632 167.507 C 538.602 166.495 541.702 165.817 544.909 165.504 L 544.714 163.514 Z M 525.984 169.869 L 524.934 168.166 C 522.009 169.969 519.259 172.095 516.711 174.508 L 518.087 175.96 L 519.462 177.413 C 521.818 175.181 524.351 173.224 527.033 171.571 L 525.984 169.869 Z M 511.511 183.474 L 509.893 182.298 C 507.907 185.029 506.116 187.978 504.542 191.115 L 506.329 192.012 L 508.117 192.909 C 509.597 189.96 511.274 187.199 513.128 184.65 L 511.511 183.474 Z M 502.533 201.245 L 500.633 200.62 C 499.587 203.8 498.739 207.116 498.103 210.547 L 500.07 210.911 L 502.037 211.275 C 502.64 208.017 503.444 204.875 504.433 201.869 L 502.533 201.245 Z M 498.875 220.809 L 496.878 220.691 C 496.682 224.017 496.678 227.422 496.877 230.891 L 498.874 230.776 L 500.87 230.662 C 500.68 227.346 500.685 224.096 500.871 220.926 L 498.875 220.809 Z M 499.991 240.689 L 498.019 241.02 C 498.57 244.304 499.303 247.63 500.226 250.983 L 502.154 250.451 L 504.083 249.92 C 503.195 246.698 502.492 243.507 501.964 240.358 L 499.991 240.689 Z M 505.294 259.999 L 503.426 260.714 C 504.603 263.789 505.944 266.877 507.456 269.968 L 509.252 269.089 L 511.049 268.211 C 509.589 265.225 508.295 262.247 507.161 259.284 L 505.294 259.999 Z M 513.998 277.833 L 512.281 278.859 C 513.989 281.717 515.849 284.57 517.866 287.412 L 519.497 286.254 L 521.128 285.096 C 519.17 282.339 517.368 279.574 515.715 276.807 L 513.998 277.833 Z M 525.539 294.137 L 523.996 295.409 C 526.088 297.946 528.312 300.468 530.673 302.969 L 532.127 301.596 L 533.582 300.223 C 531.281 297.786 529.116 295.332 527.082 292.864 L 525.539 294.137 Z M 539.286 308.712 L 537.921 310.174 C 540.295 312.392 542.783 314.589 545.389 316.761 L 546.669 315.225 L 547.95 313.689 C 545.401 311.564 542.969 309.417 540.651 307.251 L 539.286 308.712 Z M 554.653 321.518 L 553.457 323.122 C 556.044 325.052 558.731 326.958 561.519 328.837 L 562.637 327.178 L 563.755 325.52 C 561.018 323.676 558.384 321.807 555.849 319.915 L 554.653 321.518 Z M 571.223 332.677 L 570.183 334.385 C 572.931 336.058 575.767 337.706 578.693 339.326 L 579.662 337.577 L 580.631 335.827 C 577.753 334.233 574.964 332.612 572.263 330.968 L 571.223 332.677 Z M 588.639 342.318 L 587.74 344.104 C 590.632 345.56 593.604 346.991 596.657 348.394 L 597.493 346.577 L 598.328 344.76 C 595.318 343.376 592.388 341.966 589.538 340.531 L 588.639 342.318 Z M 606.676 350.611 L 605.903 352.455 C 608.95 353.733 612.07 354.985 615.266 356.21 L 615.982 354.342 L 616.697 352.474 C 613.54 351.265 610.458 350.028 607.45 348.767 L 606.676 350.611 Z M 625.237 357.733 L 624.576 359.621 C 627.747 360.732 630.987 361.817 634.297 362.874 L 634.906 360.969 L 635.514 359.064 C 632.239 358.018 629.034 356.945 625.898 355.846 L 625.237 357.733 Z M 644.29 363.835 L 643.73 365.755 C 646.88 366.674 650.089 367.57 653.359 368.44 L 653.873 366.507 L 654.388 364.574 C 651.148 363.712 647.969 362.826 644.85 361.915 L 644.29 363.835 Z M 663.819 369.029 L 663.349 370.973 C 666.468 371.726 669.639 372.456 672.862 373.164 L 673.291 371.21 L 673.72 369.257 C 670.523 368.555 667.38 367.831 664.288 367.084 L 663.819 369.029 Z M 683.036 373.246 L 682.646 375.208 C 685.96 375.866 689.326 376.501 692.745 377.111 L 693.097 375.142 L 693.448 373.173 C 690.054 372.567 686.714 371.938 683.426 371.285 L 683.036 373.246 Z M 702.746 376.775 L 702.429 378.75 C 705.656 379.267 708.927 379.763 712.244 380.237 L 712.527 378.257 L 712.81 376.278 C 709.515 375.806 706.266 375.314 703.062 374.8 L 702.746 376.775 Z M 722.583 379.61 L 722.333 381.594 C 725.62 382.009 728.95 382.403 732.324 382.776 L 732.543 380.788 L 732.763 378.8 C 729.41 378.429 726.1 378.038 722.834 377.626 L 722.583 379.61 Z M 742.27 381.791 L 742.079 383.782 C 745.37 384.097 748.701 384.393 752.072 384.669 L 752.235 382.676 L 752.398 380.682 C 749.045 380.408 745.733 380.114 742.461 379.8 L 742.27 381.791 Z M 762.44 383.439 L 762.305 385.434 C 765.553 385.655 768.837 385.857 772.157 386.041 L 772.268 384.044 L 772.378 382.047 C 769.074 381.864 765.807 381.663 762.576 381.443 L 762.44 383.439 Z M 782.082 384.527 L 781.996 386.525 C 785.31 386.668 788.659 386.793 792.042 386.899 L 792.105 384.9 L 792.168 382.901 C 788.799 382.795 785.466 382.671 782.168 382.529 L 782.082 384.527 Z M 802.339 385.162 L 802.3 387.161 C 805.562 387.226 808.855 387.274 812.181 387.304 L 812.199 385.304 L 812.217 383.304 C 808.906 383.274 805.627 383.226 802.379 383.162 L 802.339 385.162 Z M 822.005 385.343 L 822.007 387.343 C 825.313 387.339 828.65 387.319 832.017 387.282 L 831.995 385.282 L 831.972 383.282 C 828.619 383.319 825.295 383.34 822.003 383.343 L 822.005 385.343 Z M 842.169 385.119 L 842.21 387.118 C 845.549 387.048 848.918 386.962 852.315 386.859 L 852.255 384.86 L 852.194 382.861 C 848.809 382.963 845.453 383.049 842.127 383.119 L 842.169 385.119 Z M 861.983 384.522 L 862.061 386.521 C 865.336 386.393 868.638 386.25 871.967 386.091 L 871.872 384.093 L 871.776 382.095 C 868.459 382.253 865.168 382.396 861.905 382.524 L 861.983 384.522 Z M 881.922 383.571 L 882.034 385.568 C 885.417 385.378 888.827 385.173 892.265 384.952 L 892.136 382.956 L 892.008 380.96 C 888.581 381.181 885.182 381.385 881.81 381.575 L 881.922 383.571 Z M 902.036 382.279 L 902.18 384.274 C 905.408 384.041 908.661 383.794 911.936 383.533 L 911.778 381.539 L 911.619 379.545 C 908.353 379.806 905.11 380.052 901.892 380.284 L 902.036 382.279 Z M 921.662 380.715 L 921.835 382.708 C 925.159 382.418 928.506 382.115 931.877 381.797 L 931.689 379.806 L 931.501 377.815 C 928.14 378.132 924.802 378.434 921.488 378.723 L 921.662 380.715 Z M 941.86 378.811 L 942.062 380.801 C 943.771 380.628 945.487 380.451 947.209 380.27 L 947 378.281 L 946.791 376.292 C 945.074 376.472 943.363 376.649 941.659 376.822 L 941.86 378.811 Z M 267 372.281 L 266.824 374.273 L 271.074 374.648 L 271.25 372.656 L 271.426 370.664 L 267.176 370.289 L 267 372.281 Z M 279.75 373.406 L 279.574 375.398 L 283.824 375.773 L 284 373.781 L 284.176 371.789 L 279.926 371.414 L 279.75 373.406 Z" fill="currentColor" fill-rule="nonzero"></path>
</svg>