<svg xmlns="http://www.w3.org/2000/svg" style="color:#C9E835" width="1441" height="266.875" viewBox="0 0 1441 266.875" fill="none">
  <path d="M 428 189.281 L 426.806 187.677 L 428 189.281 Z M 333 173.781 L 334.948 173.328 L 333 173.781 Z M 2.082 112.61 C 2.877 113.377 4.143 113.354 4.91 112.559 C 5.676 111.764 5.653 110.498 4.858 109.731 L 3.47 111.171 L 2.082 112.61 Z M 12.042 116.49 C 11.229 115.743 9.964 115.796 9.216 116.61 C 8.469 117.423 8.522 118.688 9.336 119.436 L 10.689 117.963 L 12.042 116.49 Z M 16.736 126.089 C 17.565 126.819 18.829 126.738 19.559 125.909 C 20.288 125.08 20.208 123.816 19.379 123.086 L 18.057 124.588 L 16.736 126.089 Z M 26.854 129.533 C 26.01 128.82 24.748 128.926 24.035 129.769 C 23.322 130.613 23.428 131.875 24.271 132.588 L 25.562 131.06 L 26.854 129.533 Z M 31.938 138.944 C 32.795 139.641 34.054 139.511 34.751 138.654 C 35.448 137.797 35.319 136.537 34.462 135.84 L 33.2 137.392 L 31.938 138.944 Z M 42.199 142.014 C 41.329 141.333 40.072 141.486 39.391 142.356 C 38.71 143.226 38.863 144.483 39.733 145.164 L 40.966 143.589 L 42.199 142.014 Z M 47.623 151.226 C 48.505 151.891 49.759 151.716 50.424 150.834 C 51.089 149.952 50.913 148.698 50.031 148.033 L 48.827 149.629 L 47.623 151.226 Z M 57.937 153.884 C 57.043 153.235 55.792 153.433 55.143 154.327 C 54.494 155.221 54.692 156.471 55.586 157.12 L 56.761 155.502 L 57.937 153.884 Z M 63.679 162.889 C 64.584 163.522 65.831 163.301 66.464 162.396 C 67.097 161.491 66.876 160.244 65.971 159.611 L 64.825 161.25 L 63.679 162.889 Z M 74.13 165.206 C 73.213 164.59 71.97 164.833 71.354 165.75 C 70.738 166.666 70.981 167.909 71.897 168.526 L 73.014 166.866 L 74.13 165.206 Z M 80.201 174.001 C 81.129 174.6 82.367 174.334 82.967 173.407 C 83.566 172.479 83.3 171.241 82.372 170.641 L 81.287 172.321 L 80.201 174.001 Z M 90.691 175.908 C 89.752 175.326 88.519 175.615 87.937 176.554 C 87.355 177.493 87.644 178.725 88.583 179.308 L 89.637 177.608 L 90.691 175.908 Z M 97.091 184.472 C 98.041 185.036 99.268 184.724 99.832 183.774 C 100.396 182.825 100.084 181.597 99.134 181.033 L 98.113 182.753 L 97.091 184.472 Z M 107.683 185.999 C 106.722 185.454 105.502 185.79 104.956 186.751 C 104.411 187.711 104.747 188.932 105.708 189.478 L 106.695 187.738 L 107.683 185.999 Z M 114.384 194.29 C 115.355 194.817 116.569 194.456 117.095 193.484 C 117.621 192.513 117.26 191.299 116.289 190.773 L 115.336 192.532 L 114.384 194.29 Z M 125.015 195.384 C 124.033 194.878 122.827 195.264 122.321 196.246 C 121.815 197.228 122.201 198.434 123.183 198.94 L 124.099 197.162 L 125.015 195.384 Z M 132.087 203.408 C 133.08 203.893 134.277 203.482 134.762 202.489 C 135.247 201.497 134.835 200.299 133.843 199.814 L 132.965 201.611 L 132.087 203.408 Z M 142.735 204.038 C 141.732 203.575 140.544 204.013 140.081 205.016 C 139.618 206.019 140.056 207.207 141.059 207.67 L 141.897 205.854 L 142.735 204.038 Z M 150.146 211.739 C 151.159 212.178 152.337 211.713 152.777 210.7 C 153.216 209.687 152.752 208.509 151.738 208.069 L 150.942 209.904 L 150.146 211.739 Z M 160.832 211.889 C 159.808 211.474 158.642 211.967 158.226 212.99 C 157.81 214.013 158.303 215.18 159.326 215.595 L 160.079 213.742 L 160.832 211.889 Z M 168.586 219.225 C 169.619 219.616 170.773 219.094 171.164 218.061 C 171.554 217.028 171.033 215.874 170 215.483 L 169.293 217.354 L 168.586 219.225 Z M 179.266 218.85 C 178.223 218.487 177.083 219.037 176.719 220.08 C 176.355 221.123 176.906 222.263 177.948 222.627 L 178.607 220.739 L 179.266 218.85 Z M 187.392 225.783 C 188.445 226.119 189.57 225.538 189.906 224.486 C 190.242 223.433 189.661 222.308 188.609 221.972 L 188.001 223.877 L 187.392 225.783 Z M 198.029 224.838 C 196.968 224.531 195.859 225.143 195.552 226.204 C 195.245 227.265 195.857 228.374 196.918 228.681 L 197.474 226.759 L 198.029 224.838 Z M 206.532 231.312 C 207.601 231.588 208.692 230.945 208.968 229.875 C 209.244 228.806 208.601 227.715 207.532 227.439 L 207.032 229.375 L 206.532 231.312 Z M 217.095 229.757 C 216.018 229.513 214.947 230.189 214.703 231.266 C 214.459 232.343 215.134 233.414 216.212 233.658 L 216.654 231.708 L 217.095 229.757 Z M 225.964 235.71 C 227.048 235.92 228.098 235.211 228.308 234.127 C 228.519 233.043 227.81 231.993 226.726 231.783 L 226.345 233.746 L 225.964 235.71 Z M 236.419 233.503 C 235.329 233.327 234.302 234.069 234.127 235.16 C 233.952 236.251 234.694 237.277 235.785 237.452 L 236.102 235.477 L 236.419 233.503 Z M 245.648 238.869 C 246.744 239.007 247.744 238.231 247.883 237.135 C 248.022 236.04 247.246 235.039 246.15 234.9 L 245.899 236.884 L 245.648 238.869 Z M 255.927 235.965 C 254.827 235.865 253.854 236.675 253.753 237.775 C 253.653 238.875 254.463 239.848 255.563 239.949 L 255.745 237.957 L 255.927 235.965 Z M 265.515 240.678 C 266.617 240.739 267.561 239.894 267.622 238.791 C 267.682 237.688 266.838 236.745 265.735 236.684 L 265.625 238.681 L 265.515 240.678 Z M 275.551 237.044 C 274.446 237.024 273.535 237.903 273.515 239.008 C 273.495 240.112 274.374 241.024 275.478 241.044 L 275.515 239.044 L 275.551 237.044 Z M 285.465 241.034 C 286.569 241.011 287.447 240.098 287.424 238.994 C 287.402 237.889 286.489 237.012 285.384 237.034 L 285.425 239.034 L 285.465 241.034 Z M 295.195 236.645 C 294.093 236.71 293.252 237.657 293.317 238.76 C 293.383 239.863 294.33 240.703 295.432 240.638 L 295.314 238.641 L 295.195 236.645 Z M 305.38 239.848 C 306.479 239.738 307.281 238.758 307.171 237.659 C 307.062 236.56 306.082 235.758 304.983 235.867 L 305.181 237.858 L 305.38 239.848 Z M 314.75 234.693 C 313.656 234.847 312.895 235.859 313.049 236.952 C 313.204 238.046 314.215 238.808 315.309 238.653 L 315.03 236.673 L 314.75 234.693 Z M 325.143 237.058 C 326.23 236.859 326.949 235.817 326.749 234.73 C 326.55 233.644 325.508 232.925 324.421 233.124 L 324.782 235.091 L 325.143 237.058 Z M 334.051 231.148 C 332.974 231.393 332.299 232.464 332.544 233.542 C 332.788 234.619 333.86 235.294 334.937 235.049 L 334.494 233.099 L 334.051 231.148 Z M 344.62 232.636 C 345.686 232.346 346.315 231.247 346.026 230.181 C 345.736 229.115 344.637 228.486 343.571 228.776 L 344.096 230.706 L 344.62 232.636 Z M 352.98 226.007 C 351.927 226.341 351.344 227.465 351.678 228.518 C 352.012 229.571 353.137 230.153 354.19 229.819 L 353.585 227.913 L 352.98 226.007 Z M 363.671 226.591 C 364.709 226.213 365.244 225.065 364.866 224.027 C 364.488 222.989 363.341 222.454 362.303 222.832 L 362.987 224.711 L 363.671 226.591 Z M 371.42 219.297 C 370.399 219.718 369.912 220.887 370.332 221.908 C 370.752 222.929 371.921 223.417 372.943 222.996 L 372.181 221.147 L 371.42 219.297 Z M 382.136 218.99 C 383.139 218.528 383.578 217.34 383.116 216.337 C 382.654 215.333 381.466 214.894 380.463 215.356 L 381.299 217.173 L 382.136 218.99 Z M 389.258 211.091 C 388.274 211.593 387.883 212.797 388.385 213.781 C 388.886 214.765 390.091 215.156 391.075 214.655 L 390.167 212.873 L 389.258 211.091 Z M 399.897 209.935 C 400.861 209.395 401.204 208.176 400.664 207.213 C 400.124 206.249 398.905 205.906 397.942 206.446 L 398.919 208.19 L 399.897 209.935 Z M 406.4 201.49 C 405.458 202.066 405.161 203.297 405.737 204.24 C 406.314 205.182 407.545 205.479 408.487 204.902 L 407.443 203.196 L 406.4 201.49 Z M 416.904 199.535 C 417.825 198.924 418.075 197.682 417.464 196.762 C 416.853 195.842 415.612 195.591 414.692 196.202 L 415.798 197.868 L 416.904 199.535 Z M 422.777 190.621 C 421.879 191.264 421.674 192.514 422.317 193.411 C 422.961 194.309 424.21 194.515 425.108 193.871 L 423.943 192.246 L 422.777 190.621 Z M 433.445 187.605 C 434.307 186.914 434.446 185.655 433.755 184.793 C 433.064 183.931 431.805 183.793 430.943 184.483 L 432.194 186.044 L 433.445 187.605 Z M 438.472 177.929 C 437.673 178.691 437.642 179.957 438.404 180.757 C 439.166 181.557 440.432 181.587 441.231 180.825 L 439.852 179.377 L 438.472 177.929 Z M 448.358 173.233 C 449.062 172.382 448.943 171.121 448.092 170.417 C 447.241 169.713 445.98 169.832 445.276 170.683 L 446.817 171.958 L 448.358 173.233 Z M 450.916 162.631 C 450.368 163.59 450.701 164.812 451.66 165.36 C 452.619 165.908 453.841 165.575 454.389 164.616 L 452.652 163.623 L 450.916 162.631 Z M 458.507 154.875 C 458.796 153.809 458.167 152.711 457.101 152.421 C 456.035 152.132 454.936 152.761 454.646 153.827 L 456.577 154.351 L 458.507 154.875 Z M 455.546 144.406 C 455.644 145.506 456.616 146.318 457.716 146.219 C 458.816 146.121 459.628 145.149 459.53 144.049 L 457.538 144.227 L 455.546 144.406 Z M 456.532 133.621 C 456.038 132.634 454.836 132.234 453.849 132.728 C 452.861 133.223 452.461 134.424 452.956 135.412 L 454.744 134.517 L 456.532 133.621 Z M 447.372 127.631 C 448.136 128.429 449.402 128.457 450.2 127.693 C 450.998 126.929 451.026 125.663 450.262 124.865 L 448.817 126.248 L 447.372 127.631 Z M 442.142 118.086 C 441.227 117.467 439.984 117.706 439.364 118.621 C 438.745 119.535 438.984 120.779 439.899 121.398 L 441.02 119.742 L 442.142 118.086 Z M 431.278 116.541 C 432.278 117.01 433.469 116.579 433.937 115.578 C 434.406 114.578 433.975 113.387 432.975 112.919 L 432.126 114.73 L 431.278 116.541 Z M 423.268 109.111 C 422.217 108.771 421.089 109.347 420.749 110.398 C 420.409 111.449 420.984 112.576 422.035 112.917 L 422.652 111.014 L 423.268 109.111 Z M 412.375 110.367 C 413.456 110.591 414.515 109.897 414.74 108.815 C 414.965 107.734 414.27 106.675 413.189 106.45 L 412.782 108.409 L 412.375 110.367 Z M 402.912 104.854 C 401.813 104.739 400.83 105.537 400.715 106.636 C 400.6 107.734 401.398 108.718 402.497 108.832 L 402.704 106.843 L 402.912 104.854 Z M 392.516 108.295 C 393.62 108.298 394.519 107.406 394.522 106.301 C 394.525 105.197 393.633 104.298 392.528 104.295 L 392.522 106.295 L 392.516 108.295 Z M 382.131 104.811 C 381.033 104.926 380.235 105.909 380.349 107.008 C 380.464 108.106 381.447 108.904 382.546 108.789 L 382.339 106.8 L 382.131 104.811 Z M 372.732 110.398 C 373.809 110.152 374.483 109.081 374.238 108.004 C 373.993 106.927 372.921 106.252 371.844 106.497 L 372.288 108.448 L 372.732 110.398 Z M 361.801 109.52 C 360.77 109.915 360.253 111.071 360.647 112.103 C 361.042 113.134 362.198 113.651 363.229 113.257 L 362.515 111.389 L 361.801 109.52 Z M 354.36 117.514 C 355.31 116.95 355.623 115.723 355.059 114.773 C 354.495 113.823 353.268 113.51 352.319 114.074 L 353.339 115.794 L 354.36 117.514 Z M 343.803 120.358 C 342.988 121.104 342.933 122.369 343.679 123.183 C 344.425 123.998 345.69 124.054 346.505 123.308 L 345.154 121.833 L 343.803 120.358 Z M 340.158 130.636 C 340.777 129.721 340.537 128.477 339.622 127.859 C 338.707 127.24 337.463 127.48 336.845 128.395 L 338.501 129.515 L 340.158 130.636 Z M 331.978 137.889 C 331.594 138.925 332.123 140.075 333.159 140.459 C 334.195 140.842 335.346 140.313 335.729 139.277 L 333.853 138.583 L 331.978 137.889 Z M 333.382 148.677 C 333.537 147.583 332.776 146.571 331.683 146.415 C 330.589 146.26 329.577 147.021 329.422 148.114 L 331.402 148.396 L 333.382 148.677 Z M 328.893 158.598 C 328.93 159.702 329.855 160.567 330.959 160.53 C 332.063 160.493 332.927 159.568 332.89 158.464 L 330.891 158.531 L 328.893 158.598 Z M 333.928 168.301 C 333.74 167.213 332.706 166.482 331.617 166.67 C 330.529 166.857 329.798 167.892 329.986 168.98 L 331.957 168.641 L 333.928 168.301 Z M 332.28 179.159 C 332.565 180.226 333.661 180.861 334.728 180.576 C 335.795 180.292 336.43 179.196 336.145 178.128 L 334.213 178.643 L 332.28 179.159 Z M 338.917 187.306 C 338.562 186.26 337.426 185.7 336.38 186.055 C 335.334 186.41 334.774 187.546 335.129 188.592 L 337.023 187.949 L 338.917 187.306 Z M 338.692 197.948 C 339.124 198.965 340.299 199.439 341.315 199.007 C 342.332 198.575 342.806 197.4 342.374 196.384 L 340.533 197.166 L 338.692 197.948 Z M 346.504 205.114 C 345.991 204.136 344.782 203.759 343.804 204.272 C 342.826 204.785 342.449 205.994 342.962 206.972 L 344.733 206.043 L 346.504 205.114 Z M 347.965 215.585 C 348.561 216.514 349.798 216.784 350.728 216.188 C 351.658 215.592 351.928 214.354 351.332 213.425 L 349.648 214.505 L 347.965 215.585 Z M 356.876 221.255 C 356.197 220.384 354.94 220.229 354.069 220.909 C 353.198 221.588 353.043 222.845 353.723 223.716 L 355.3 222.485 L 356.876 221.255 Z M 360.235 231.288 C 360.995 232.09 362.261 232.124 363.063 231.365 C 363.865 230.605 363.899 229.339 363.139 228.537 L 361.688 229.912 L 360.235 231.288 Z M 370.087 235.196 C 369.254 234.471 367.991 234.559 367.266 235.392 C 366.541 236.226 366.629 237.489 367.462 238.214 L 368.775 236.705 L 370.087 235.196 Z M 375.306 244.404 C 376.204 245.047 377.453 244.839 378.096 243.941 C 378.739 243.043 378.531 241.793 377.633 241.151 L 376.469 242.777 L 375.306 244.404 Z M 385.702 246.38 C 384.749 245.822 383.524 246.142 382.965 247.095 C 382.407 248.048 382.727 249.273 383.68 249.832 L 384.691 248.106 L 385.702 246.38 Z M 392.495 254.495 C 393.492 254.97 394.685 254.546 395.16 253.549 C 395.635 252.552 395.211 251.358 394.214 250.884 L 393.354 252.689 L 392.495 254.495 Z M 403.088 254.679 C 402.057 254.285 400.9 254.802 400.506 255.833 C 400.112 256.865 400.628 258.021 401.66 258.416 L 402.374 256.547 L 403.088 254.679 Z M 411.097 261.63 C 412.154 261.949 413.27 261.35 413.589 260.292 C 413.907 259.234 413.308 258.119 412.25 257.8 L 411.674 259.715 L 411.097 261.63 Z M 421.594 260.279 C 420.518 260.03 419.444 260.701 419.196 261.777 C 418.947 262.853 419.618 263.927 420.694 264.176 L 421.144 262.227 L 421.594 260.279 Z M 430.413 266.115 C 431.502 266.299 432.534 265.566 432.719 264.477 C 432.903 263.388 432.17 262.355 431.081 262.171 L 430.747 264.143 L 430.413 266.115 Z M 440.683 263.529 C 439.586 263.403 438.594 264.191 438.468 265.288 C 438.343 266.386 439.13 267.377 440.227 267.503 L 440.455 265.516 L 440.683 263.529 Z M 450.109 268.39 C 451.211 268.462 452.164 267.627 452.236 266.525 C 452.309 265.423 451.474 264.471 450.372 264.398 L 450.24 266.394 L 450.109 268.39 Z M 460.102 264.82 C 458.998 264.796 458.083 265.672 458.059 266.776 C 458.035 267.88 458.911 268.795 460.015 268.819 L 460.059 266.819 L 460.102 264.82 Z M 469.878 268.833 C 470.982 268.813 471.861 267.902 471.841 266.797 C 471.821 265.693 470.91 264.814 469.805 264.834 L 469.841 266.833 L 469.878 268.833 Z M 479.534 264.477 C 478.431 264.537 477.586 265.48 477.646 266.583 C 477.706 267.686 478.649 268.532 479.752 268.471 L 479.643 266.474 L 479.534 264.477 Z M 489.626 267.764 C 490.726 267.666 491.539 266.696 491.442 265.595 C 491.345 264.495 490.374 263.682 489.274 263.779 L 489.45 265.771 L 489.626 267.764 Z M 498.963 262.771 C 497.866 262.902 497.083 263.898 497.214 264.994 C 497.345 266.091 498.34 266.874 499.437 266.743 L 499.2 264.757 L 498.963 262.771 Z M 509.206 265.434 C 510.299 265.272 511.053 264.255 510.891 263.163 C 510.729 262.07 509.712 261.316 508.619 261.478 L 508.913 263.456 L 509.206 265.434 Z M 518.265 259.915 C 517.177 260.106 516.449 261.142 516.64 262.23 C 516.831 263.318 517.868 264.046 518.956 263.855 L 518.61 261.885 L 518.265 259.915 Z M 528.648 262.028 C 529.731 261.81 530.433 260.756 530.215 259.673 C 529.997 258.59 528.943 257.889 527.86 258.107 L 528.254 260.068 L 528.648 262.028 Z M 537.399 256.072 C 536.321 256.315 535.645 257.385 535.887 258.463 C 536.13 259.54 537.201 260.217 538.278 259.974 L 537.839 258.023 L 537.399 256.072 Z M 547.877 257.699 C 548.949 257.432 549.602 256.347 549.335 255.276 C 549.069 254.204 547.984 253.551 546.912 253.817 L 547.394 255.758 L 547.877 257.699 Z M 556.369 251.361 C 555.303 251.65 554.672 252.748 554.961 253.814 C 555.25 254.881 556.348 255.511 557.414 255.222 L 556.892 253.292 L 556.369 251.361 Z M 566.892 252.555 C 567.952 252.246 568.561 251.135 568.251 250.075 C 567.942 249.015 566.831 248.406 565.771 248.716 L 566.331 250.636 L 566.892 252.555 Z M 575.132 245.886 C 574.077 246.215 573.49 247.337 573.819 248.391 C 574.149 249.445 575.271 250.033 576.325 249.703 L 575.728 247.794 L 575.132 245.886 Z M 585.695 246.68 C 586.744 246.331 587.311 245.199 586.962 244.15 C 586.613 243.102 585.481 242.535 584.433 242.884 L 585.064 244.782 L 585.695 246.68 Z M 593.683 239.716 C 592.641 240.083 592.094 241.225 592.461 242.267 C 592.828 243.308 593.971 243.855 595.012 243.488 L 594.348 241.602 L 593.683 239.716 Z M 604.27 240.138 C 605.305 239.753 605.832 238.602 605.448 237.566 C 605.063 236.531 603.912 236.003 602.876 236.388 L 603.573 238.263 L 604.27 240.138 Z M 612.014 232.906 C 610.985 233.307 610.477 234.467 610.879 235.496 C 611.281 236.525 612.441 237.033 613.47 236.631 L 612.742 234.768 L 612.014 232.906 Z M 622.615 232.972 C 623.637 232.554 624.126 231.386 623.707 230.363 C 623.289 229.341 622.121 228.852 621.099 229.271 L 621.857 231.122 L 622.615 232.972 Z M 630.109 225.495 C 629.094 225.93 628.623 227.106 629.058 228.121 C 629.493 229.137 630.669 229.607 631.684 229.172 L 630.897 227.334 L 630.109 225.495 Z M 640.708 225.22 C 641.716 224.768 642.168 223.585 641.716 222.577 C 641.265 221.569 640.082 221.117 639.074 221.569 L 639.891 223.394 L 640.708 225.22 Z M 647.976 217.499 C 646.975 217.966 646.542 219.156 647.01 220.157 C 647.477 221.158 648.667 221.591 649.668 221.123 L 648.822 219.311 L 647.976 217.499 Z M 658.538 216.895 C 659.531 216.412 659.944 215.215 659.461 214.222 C 658.978 213.229 657.781 212.815 656.788 213.299 L 657.663 215.097 L 658.538 216.895 Z M 665.556 208.944 C 664.57 209.444 664.176 210.647 664.676 211.632 C 665.175 212.618 666.379 213.011 667.364 212.512 L 666.46 210.728 L 665.556 208.944 Z M 676.121 207.982 C 677.098 207.466 677.472 206.256 676.956 205.28 C 676.44 204.303 675.23 203.929 674.254 204.445 L 675.187 206.213 L 676.121 207.982 Z M 682.847 199.814 C 681.879 200.347 681.526 201.563 682.058 202.531 C 682.59 203.498 683.807 203.852 684.774 203.319 L 683.811 201.567 L 682.847 199.814 Z M 693.351 198.503 C 694.309 197.954 694.64 196.732 694.091 195.774 C 693.542 194.815 692.319 194.484 691.361 195.033 L 692.356 196.768 L 693.351 198.503 Z M 699.821 190.078 C 698.874 190.645 698.565 191.873 699.133 192.821 C 699.7 193.769 700.928 194.077 701.876 193.51 L 700.849 191.794 L 699.821 190.078 Z M 710.174 188.416 C 711.107 187.825 711.385 186.59 710.794 185.657 C 710.203 184.723 708.968 184.446 708.034 185.036 L 709.104 186.726 L 710.174 188.416 Z M 716.258 179.669 C 715.341 180.285 715.097 181.527 715.712 182.444 C 716.328 183.362 717.57 183.606 718.488 182.99 L 717.373 181.33 L 716.258 179.669 Z M 726.601 177.412 C 727.505 176.777 727.722 175.53 727.087 174.626 C 726.452 173.722 725.204 173.505 724.301 174.14 L 725.451 175.776 L 726.601 177.412 Z M 732.24 168.45 C 731.348 169.101 731.152 170.352 731.803 171.245 C 732.454 172.137 733.705 172.333 734.598 171.681 L 733.419 170.066 L 732.24 168.45 Z M 742.544 165.793 C 743.427 165.129 743.604 163.875 742.94 162.992 C 742.276 162.109 741.023 161.932 740.14 162.595 L 741.342 164.194 L 742.544 165.793 Z M 747.932 156.663 C 747.057 157.337 746.894 158.593 747.568 159.468 C 748.242 160.343 749.498 160.506 750.373 159.832 L 749.152 158.248 L 747.932 156.663 Z M 758.131 153.798 C 759 153.116 759.151 151.859 758.469 150.99 C 757.787 150.121 756.53 149.97 755.661 150.652 L 756.896 152.225 L 758.131 153.798 Z M 763.388 144.541 C 762.524 145.229 762.382 146.487 763.07 147.351 C 763.758 148.215 765.016 148.358 765.88 147.67 L 764.634 146.105 L 763.388 144.541 Z M 773.534 141.539 C 774.395 140.846 774.531 139.587 773.838 138.727 C 773.145 137.867 771.886 137.731 771.026 138.423 L 772.28 139.981 L 773.534 141.539 Z M 778.667 132.247 C 777.809 132.943 777.678 134.203 778.374 135.06 C 779.07 135.918 780.329 136.05 781.187 135.354 L 779.927 133.801 L 778.667 132.247 Z M 788.826 129.144 C 789.682 128.446 789.811 127.187 789.113 126.33 C 788.416 125.474 787.156 125.345 786.3 126.043 L 787.563 127.593 L 788.826 129.144 Z M 793.902 119.845 C 793.046 120.543 792.918 121.803 793.616 122.659 C 794.314 123.514 795.574 123.642 796.43 122.944 L 795.166 121.394 L 793.902 119.845 Z M 804.06 116.724 C 804.916 116.026 805.045 114.766 804.347 113.91 C 803.65 113.053 802.39 112.925 801.533 113.622 L 802.797 115.173 L 804.06 116.724 Z M 809.15 107.428 C 808.292 108.124 808.161 109.384 808.857 110.242 C 809.553 111.099 810.813 111.23 811.671 110.534 L 810.41 108.981 L 809.15 107.428 Z M 819.31 104.355 C 820.169 103.661 820.305 102.402 819.611 101.542 C 818.918 100.682 817.659 100.547 816.799 101.241 L 818.054 102.798 L 819.31 104.355 Z M 824.469 95.084 C 823.606 95.773 823.465 97.032 824.155 97.894 C 824.844 98.757 826.103 98.898 826.966 98.209 L 825.717 96.646 L 824.469 95.084 Z M 834.651 92.102 C 835.518 91.418 835.666 90.16 834.981 89.293 C 834.297 88.426 833.039 88.278 832.172 88.963 L 833.412 90.533 L 834.651 92.102 Z M 839.914 82.891 C 839.042 83.57 838.886 84.826 839.564 85.698 C 840.243 86.569 841.5 86.726 842.371 86.047 L 841.142 84.469 L 839.914 82.891 Z M 850.14 80.049 C 851.017 79.377 851.183 78.122 850.512 77.245 C 849.841 76.368 848.585 76.201 847.708 76.872 L 848.924 78.46 L 850.14 80.049 Z M 855.552 70.926 C 854.669 71.589 854.49 72.842 855.153 73.726 C 855.816 74.609 857.07 74.788 857.953 74.125 L 856.753 72.526 L 855.552 70.926 Z M 865.828 68.282 C 866.719 67.629 866.912 66.377 866.258 65.487 C 865.605 64.596 864.354 64.403 863.463 65.056 L 864.646 66.669 L 865.828 68.282 Z M 871.448 59.277 C 870.549 59.919 870.341 61.168 870.982 62.066 C 871.624 62.965 872.873 63.174 873.772 62.532 L 872.61 60.904 L 871.448 59.277 Z M 881.772 56.903 C 882.68 56.274 882.906 55.028 882.277 54.12 C 881.648 53.212 880.402 52.986 879.494 53.615 L 880.633 55.259 L 881.772 56.903 Z M 887.659 48.052 C 886.741 48.667 886.495 49.909 887.109 50.827 C 887.724 51.745 888.966 51.991 889.884 51.376 L 888.771 49.714 L 887.659 48.052 Z M 898.053 46.011 C 898.982 45.413 899.251 44.176 898.653 43.247 C 898.055 42.318 896.817 42.05 895.888 42.648 L 896.971 44.329 L 898.053 46.011 Z M 904.246 37.384 C 903.305 37.963 903.012 39.195 903.591 40.136 C 904.17 41.077 905.402 41.37 906.343 40.791 L 905.294 39.088 L 904.246 37.384 Z M 914.735 35.753 C 915.688 35.195 916.009 33.97 915.452 33.017 C 914.894 32.063 913.669 31.742 912.716 32.3 L 913.725 34.026 L 914.735 35.753 Z M 921.271 27.437 C 920.304 27.971 919.952 29.187 920.486 30.154 C 921.019 31.122 922.236 31.473 923.203 30.94 L 922.237 29.188 L 921.271 27.437 Z M 931.855 26.323 C 932.837 25.817 933.223 24.611 932.717 23.629 C 932.211 22.647 931.005 22.261 930.023 22.767 L 930.939 24.545 L 931.855 26.323 Z M 938.875 18.379 C 937.878 18.854 937.454 20.047 937.928 21.044 C 938.403 22.042 939.596 22.466 940.594 21.991 L 939.734 20.185 L 938.875 18.379 Z M 949.455 17.96 C 950.469 17.521 950.934 16.343 950.495 15.33 C 950.056 14.316 948.878 13.851 947.865 14.29 L 948.66 16.125 L 949.455 17.96 Z M 957.055 10.518 C 956.025 10.917 955.513 12.075 955.911 13.105 C 956.31 14.135 957.469 14.647 958.499 14.248 L 957.777 12.383 L 957.055 10.518 Z M 967.64 10.936 C 968.687 10.583 969.249 9.448 968.896 8.402 C 968.543 7.355 967.409 6.793 966.362 7.145 L 967.001 9.041 L 967.64 10.936 Z M 975.819 4.21 C 974.756 4.511 974.139 5.616 974.44 6.679 C 974.741 7.742 975.846 8.359 976.909 8.058 L 976.364 6.134 L 975.819 4.21 Z M 986.349 5.658 C 987.427 5.416 988.104 4.346 987.862 3.269 C 987.62 2.191 986.55 1.513 985.472 1.756 L 985.911 3.707 L 986.349 5.658 Z M 995.229 -0.132 C 994.139 0.044 993.398 1.071 993.574 2.162 C 993.75 3.252 994.777 3.993 995.868 3.817 L 995.548 1.842 L 995.229 -0.132 Z M 1005.457 2.588 C 1006.557 2.485 1007.364 1.51 1007.261 0.41 C 1007.158 -0.69 1006.182 -1.498 1005.083 -1.394 L 1005.27 0.597 L 1005.457 2.588 Z M 1015.045 -1.971 C 1013.941 -1.948 1013.064 -1.034 1013.088 0.071 C 1013.111 1.175 1014.025 2.051 1015.129 2.028 L 1015.087 0.029 L 1015.045 -1.971 Z M 1024.789 2.196 C 1025.892 2.259 1026.836 1.415 1026.899 0.313 C 1026.961 -0.79 1026.118 -1.735 1025.015 -1.797 L 1024.902 0.199 L 1024.789 2.196 Z M 1034.943 -0.83 C 1033.849 -0.982 1032.839 -0.218 1032.687 0.876 C 1032.534 1.97 1033.298 2.98 1034.392 3.132 L 1034.667 1.151 L 1034.943 -0.83 Z M 1043.902 4.865 C 1044.98 5.109 1046.051 4.434 1046.295 3.356 C 1046.538 2.279 1045.863 1.208 1044.785 0.964 L 1044.344 2.915 L 1043.902 4.865 Z M 1054.399 3.572 C 1053.346 3.238 1052.222 3.821 1051.888 4.874 C 1051.554 5.927 1052.137 7.051 1053.19 7.385 L 1053.794 5.478 L 1054.399 3.572 Z M 1062.242 10.678 C 1063.263 11.099 1064.432 10.611 1064.853 9.59 C 1065.273 8.569 1064.786 7.4 1063.764 6.979 L 1063.003 8.829 L 1062.242 10.678 Z M 1072.87 11.167 C 1071.885 10.666 1070.681 11.057 1070.18 12.041 C 1069.678 13.026 1070.07 14.23 1071.054 14.731 L 1071.962 12.949 L 1072.87 11.167 Z M 1079.464 19.429 C 1080.408 20.003 1081.638 19.703 1082.213 18.76 C 1082.787 17.816 1082.488 16.586 1081.544 16.012 L 1080.504 17.72 L 1079.464 19.429 Z M 1089.831 21.47 C 1088.93 20.83 1087.682 21.042 1087.043 21.943 C 1086.403 22.844 1086.615 24.093 1087.516 24.732 L 1088.674 23.101 L 1089.831 21.47 Z M 1095.314 30.666 C 1096.171 31.362 1097.431 31.233 1098.128 30.376 C 1098.825 29.519 1098.695 28.259 1097.838 27.562 L 1096.576 29.114 L 1095.314 30.666 Z M 1105.264 33.977 C 1104.449 33.231 1103.184 33.287 1102.438 34.102 C 1101.692 34.917 1101.748 36.182 1102.563 36.928 L 1103.913 35.452 L 1105.264 33.977 Z M 1109.578 43.712 C 1110.351 44.5 1111.617 44.513 1112.406 43.739 C 1113.195 42.966 1113.207 41.7 1112.434 40.911 L 1111.006 42.311 L 1109.578 43.712 Z M 1119.179 48.138 C 1118.445 47.313 1117.181 47.239 1116.355 47.973 C 1115.53 48.707 1115.457 49.972 1116.191 50.797 L 1117.685 49.467 L 1119.179 48.138 Z M 1122.734 58.465 C 1123.438 59.316 1124.699 59.436 1125.55 58.732 C 1126.402 58.028 1126.521 56.767 1125.817 55.916 L 1124.276 57.191 L 1122.734 58.465 Z M 1132.058 63.67 C 1131.377 62.8 1130.12 62.647 1129.25 63.328 C 1128.381 64.009 1128.228 65.266 1128.909 66.136 L 1130.483 64.903 L 1132.058 63.67 Z M 1134.921 74.039 C 1135.577 74.928 1136.829 75.116 1137.718 74.46 C 1138.606 73.804 1138.795 72.551 1138.139 71.663 L 1136.53 72.851 L 1134.921 74.039 Z M 1143.88 79.676 C 1143.25 78.769 1142.004 78.544 1141.096 79.174 C 1140.189 79.804 1139.965 81.051 1140.595 81.958 L 1142.237 80.817 L 1143.88 79.676 Z M 1146.17 90.254 C 1146.771 91.18 1148.01 91.444 1148.937 90.842 C 1149.863 90.24 1150.126 89.002 1149.524 88.075 L 1147.847 89.165 L 1146.17 90.254 Z M 1154.824 96.523 C 1154.252 95.578 1153.022 95.275 1152.077 95.847 C 1151.132 96.419 1150.83 97.649 1151.402 98.594 L 1153.113 97.558 L 1154.824 96.523 Z M 1156.341 107.057 C 1156.882 108.02 1158.101 108.362 1159.064 107.821 C 1160.027 107.28 1160.369 106.061 1159.828 105.098 L 1158.084 106.077 L 1156.341 107.057 Z M 1164.618 113.963 C 1164.109 112.983 1162.902 112.6 1161.922 113.109 C 1160.941 113.618 1160.559 114.825 1161.068 115.806 L 1162.843 114.884 L 1164.618 113.963 Z M 1165.47 124.641 C 1165.947 125.637 1167.141 126.059 1168.137 125.582 C 1169.134 125.106 1169.556 123.912 1169.079 122.915 L 1167.275 123.778 L 1165.47 124.641 Z M 1173.231 131.97 C 1172.786 130.959 1171.606 130.499 1170.595 130.944 C 1169.584 131.388 1169.125 132.568 1169.569 133.58 L 1171.4 132.775 L 1173.231 131.97 Z M 1173.387 142.632 C 1173.801 143.656 1174.967 144.15 1175.991 143.735 C 1177.015 143.321 1177.509 142.155 1177.095 141.131 L 1175.241 141.881 L 1173.387 142.632 Z M 1180.727 150.474 C 1180.34 149.44 1179.188 148.915 1178.153 149.302 C 1177.119 149.689 1176.594 150.841 1176.981 151.875 L 1178.854 151.175 L 1180.727 150.474 Z M 1180.348 161.195 C 1180.712 162.238 1181.853 162.788 1182.896 162.423 C 1183.938 162.058 1184.488 160.917 1184.123 159.875 L 1182.235 160.535 L 1180.348 161.195 Z M 1187.343 169.308 C 1186.992 168.26 1185.859 167.695 1184.812 168.045 C 1183.764 168.396 1183.199 169.529 1183.549 170.576 L 1185.446 169.942 L 1187.343 169.308 Z M 1186.673 179.998 C 1187.02 181.047 1188.151 181.616 1189.2 181.269 C 1190.248 180.922 1190.817 179.791 1190.47 178.742 L 1188.572 179.37 L 1186.673 179.998 Z M 1193.621 188.132 C 1193.262 187.087 1192.125 186.531 1191.08 186.89 C 1190.035 187.248 1189.479 188.386 1189.838 189.431 L 1191.73 188.781 L 1193.621 188.132 Z M 1193.207 198.824 C 1193.597 199.858 1194.751 200.378 1195.785 199.988 C 1196.818 199.597 1197.339 198.443 1196.948 197.41 L 1195.077 198.117 L 1193.207 198.824 Z M 1200.651 206.493 C 1200.203 205.483 1199.022 205.028 1198.012 205.476 C 1197.002 205.923 1196.547 207.105 1196.995 208.115 L 1198.823 207.304 L 1200.651 206.493 Z M 1201.47 217.191 C 1202.004 218.158 1203.221 218.51 1204.188 217.976 C 1205.155 217.443 1205.506 216.226 1204.973 215.259 L 1203.222 216.225 L 1201.47 217.191 Z M 1210.121 223.462 C 1209.478 222.564 1208.228 222.358 1207.33 223.001 C 1206.432 223.645 1206.226 224.894 1206.87 225.792 L 1208.495 224.627 L 1210.121 223.462 Z M 1213.364 233.652 C 1214.126 234.451 1215.392 234.481 1216.192 233.719 C 1216.991 232.957 1217.021 231.691 1216.259 230.891 L 1214.811 232.272 L 1213.364 233.652 Z M 1223.417 237.376 C 1222.547 236.696 1221.291 236.849 1220.61 237.719 C 1219.929 238.589 1220.082 239.846 1220.952 240.526 L 1222.185 238.951 L 1223.417 237.376 Z M 1229.347 246.233 C 1230.298 246.795 1231.524 246.479 1232.086 245.528 C 1232.647 244.576 1232.331 243.35 1231.38 242.789 L 1230.363 244.511 L 1229.347 246.233 Z M 1239.99 247.235 C 1238.983 246.78 1237.799 247.228 1237.344 248.235 C 1236.889 249.241 1237.337 250.426 1238.344 250.881 L 1239.167 249.058 L 1239.99 247.235 Z M 1247.743 254.623 C 1248.786 254.988 1249.927 254.439 1250.292 253.397 C 1250.657 252.354 1250.108 251.213 1249.066 250.848 L 1248.405 252.735 L 1247.743 254.623 Z M 1258.489 253.776 C 1257.424 253.483 1256.323 254.109 1256.03 255.174 C 1255.737 256.239 1256.363 257.34 1257.428 257.633 L 1257.958 255.705 L 1258.489 253.776 Z M 1267.06 259.999 C 1268.139 260.235 1269.205 259.552 1269.441 258.473 C 1269.677 257.394 1268.994 256.328 1267.915 256.092 L 1267.487 258.045 L 1267.06 259.999 Z M 1277.51 257.97 C 1276.421 257.78 1275.385 258.508 1275.195 259.596 C 1275.005 260.684 1275.733 261.72 1276.821 261.91 L 1277.165 259.94 L 1277.51 257.97 Z M 1286.786 263.466 C 1287.88 263.618 1288.89 262.854 1289.042 261.76 C 1289.194 260.666 1288.43 259.656 1287.336 259.504 L 1287.061 261.485 L 1286.786 263.466 Z M 1297.116 260.718 C 1296.019 260.597 1295.03 261.389 1294.909 262.487 C 1294.788 263.585 1295.58 264.573 1296.678 264.694 L 1296.897 262.706 L 1297.116 260.718 Z M 1306.538 265.662 C 1307.639 265.758 1308.608 264.943 1308.704 263.842 C 1308.799 262.742 1307.985 261.772 1306.884 261.677 L 1306.711 263.669 L 1306.538 265.662 Z M 1316.908 262.443 C 1315.806 262.37 1314.853 263.204 1314.779 264.306 C 1314.706 265.408 1315.54 266.361 1316.642 266.434 L 1316.775 264.439 L 1316.908 262.443 Z M 1326.408 267.003 C 1327.511 267.059 1328.45 266.209 1328.505 265.106 C 1328.561 264.003 1327.711 263.064 1326.608 263.008 L 1326.508 265.006 L 1326.408 267.003 Z M 1336.695 263.439 C 1335.591 263.4 1334.664 264.263 1334.625 265.367 C 1334.585 266.471 1335.448 267.397 1336.552 267.437 L 1336.624 265.438 L 1336.695 263.439 Z M 1346.313 267.724 C 1347.417 267.749 1348.333 266.875 1348.359 265.771 C 1348.385 264.667 1347.511 263.751 1346.406 263.725 L 1346.36 265.724 L 1346.313 267.724 Z M 1356.431 263.903 C 1355.326 263.89 1354.42 264.774 1354.406 265.878 C 1354.392 266.983 1355.276 267.889 1356.381 267.903 L 1356.406 265.903 L 1356.431 263.903 Z M 1366.263 267.979 C 1367.368 267.982 1368.266 267.09 1368.269 265.985 C 1368.273 264.88 1367.38 263.982 1366.276 263.979 L 1366.269 265.979 L 1366.263 267.979 Z M 1376.156 263.967 C 1375.052 263.973 1374.161 264.873 1374.167 265.977 C 1374.173 267.082 1375.073 267.973 1376.178 267.967 L 1376.167 265.967 L 1376.156 263.967 Z M 1386.321 267.873 C 1387.425 267.859 1388.309 266.952 1388.295 265.847 C 1388.28 264.743 1387.373 263.859 1386.269 263.874 L 1386.295 265.873 L 1386.321 267.873 Z M 1395.956 263.716 C 1394.852 263.737 1393.974 264.65 1393.995 265.754 C 1394.017 266.859 1394.93 267.737 1396.034 267.715 L 1395.995 265.715 L 1395.956 263.716 Z M 1406.092 267.488 C 1407.196 267.46 1408.068 266.542 1408.04 265.438 C 1408.012 264.333 1407.094 263.461 1405.989 263.489 L 1406.041 265.489 L 1406.092 267.488 Z M 1415.935 263.207 C 1414.831 263.242 1413.964 264.164 1413.998 265.269 C 1414.032 266.373 1414.955 267.24 1416.059 267.206 L 1415.997 265.207 L 1415.935 263.207 Z M 1425.842 266.878 C 1426.946 266.839 1427.809 265.912 1427.769 264.808 C 1427.73 263.704 1426.803 262.841 1425.699 262.881 L 1425.77 264.879 L 1425.842 266.878 Z M 1435.766 262.497 C 1434.662 262.541 1433.804 263.472 1433.848 264.576 C 1433.893 265.679 1434.824 266.538 1435.927 266.493 L 1435.847 264.495 L 1435.766 262.497 Z M 0 107.781 L -1.407 109.203 C -0.281 110.318 0.882 111.454 2.082 112.61 L 3.47 111.171 L 4.858 109.731 C 3.671 108.587 2.521 107.462 1.407 106.36 L 0 107.781 Z M 10.689 117.963 L 9.336 119.436 C 11.695 121.604 14.163 123.825 16.736 126.089 L 18.057 124.588 L 19.379 123.086 C 16.827 120.841 14.381 118.639 12.042 116.49 L 10.689 117.963 Z M 25.562 131.06 L 24.271 132.588 C 26.747 134.681 29.304 136.801 31.938 138.944 L 33.2 137.392 L 34.462 135.84 C 31.847 133.714 29.31 131.61 26.854 129.533 L 25.562 131.06 Z M 40.966 143.589 L 39.733 145.164 C 42.3 147.174 44.931 149.196 47.623 151.226 L 48.827 149.629 L 50.031 148.033 C 47.359 146.017 44.747 144.009 42.199 142.014 L 40.966 143.589 Z M 56.761 155.502 L 55.586 157.12 C 58.232 159.042 60.93 160.967 63.679 162.889 L 64.825 161.25 L 65.971 159.611 C 63.242 157.702 60.563 155.792 57.937 153.884 L 56.761 155.502 Z M 73.014 166.866 L 71.897 168.526 C 74.621 170.358 77.39 172.184 80.201 174.001 L 81.287 172.321 L 82.372 170.641 C 79.582 168.838 76.834 167.025 74.13 165.206 L 73.014 166.866 Z M 89.637 177.608 L 88.583 179.308 C 91.381 181.043 94.218 182.765 97.091 184.472 L 98.113 182.753 L 99.134 181.033 C 96.283 179.34 93.468 177.63 90.691 175.908 L 89.637 177.608 Z M 106.695 187.738 L 105.708 189.478 C 108.567 191.101 111.459 192.706 114.384 194.29 L 115.336 192.532 L 116.289 190.773 C 113.388 189.202 110.519 187.61 107.683 185.999 L 106.695 187.738 Z M 124.099 197.162 L 123.183 198.94 C 126.122 200.454 129.09 201.945 132.087 203.408 L 132.965 201.611 L 133.843 199.814 C 130.872 198.363 127.929 196.886 125.015 195.384 L 124.099 197.162 Z M 141.897 205.854 L 141.059 207.67 C 144.062 209.056 147.092 210.413 150.146 211.739 L 150.942 209.904 L 151.738 208.069 C 148.713 206.756 145.711 205.411 142.735 204.038 L 141.897 205.854 Z M 160.079 213.742 L 159.326 215.595 C 162.39 216.84 165.477 218.051 168.586 219.225 L 169.293 217.354 L 170 215.483 C 166.922 214.321 163.866 213.122 160.832 211.889 L 160.079 213.742 Z M 178.607 220.739 L 177.948 222.627 C 181.077 223.718 184.225 224.771 187.392 225.783 L 188.001 223.877 L 188.609 221.972 C 185.476 220.972 182.361 219.93 179.266 218.85 L 178.607 220.739 Z M 197.474 226.759 L 196.918 228.681 C 200.105 229.602 203.31 230.48 206.532 231.312 L 207.032 229.375 L 207.532 227.439 C 204.348 226.617 201.18 225.749 198.029 224.838 L 197.474 226.759 Z M 216.654 231.708 L 216.212 233.658 C 219.448 234.391 222.699 235.076 225.964 235.71 L 226.345 233.746 L 226.726 231.783 C 223.502 231.157 220.292 230.481 217.095 229.757 L 216.654 231.708 Z M 236.102 235.477 L 235.785 237.452 C 239.06 237.978 242.348 238.451 245.648 238.869 L 245.899 236.884 L 246.15 234.9 C 242.895 234.489 239.651 234.022 236.419 233.503 L 236.102 235.477 Z M 255.745 237.957 L 255.563 239.949 C 258.871 240.251 262.188 240.495 265.515 240.678 L 265.625 238.681 L 265.735 236.684 C 262.457 236.504 259.187 236.263 255.927 235.965 L 255.745 237.957 Z M 275.515 239.044 L 275.478 241.044 C 278.8 241.103 282.129 241.101 285.465 241.034 L 285.425 239.034 L 285.384 237.034 C 282.1 237.101 278.822 237.103 275.551 237.044 L 275.515 239.044 Z M 295.314 238.641 L 295.432 240.638 C 298.743 240.441 302.059 240.179 305.38 239.848 L 305.181 237.858 L 304.983 235.867 C 301.716 236.193 298.454 236.451 295.195 236.645 L 295.314 238.641 Z M 315.03 236.673 L 315.309 238.653 C 318.585 238.191 321.863 237.66 325.143 237.058 L 324.782 235.091 L 324.421 233.124 C 321.196 233.716 317.972 234.238 314.75 234.693 L 315.03 236.673 Z M 334.494 233.099 L 334.937 235.049 C 338.164 234.316 341.392 233.512 344.62 232.636 L 344.096 230.706 L 343.571 228.776 C 340.398 229.638 337.224 230.428 334.051 231.148 L 334.494 233.099 Z M 353.585 227.913 L 354.19 229.819 C 357.352 228.816 360.513 227.74 363.671 226.591 L 362.987 224.711 L 362.303 222.832 C 359.197 223.963 356.089 225.02 352.98 226.007 L 353.585 227.913 Z M 372.181 221.147 L 372.943 222.996 C 376.011 221.734 379.075 220.399 382.136 218.99 L 381.299 217.173 L 380.463 215.356 C 377.452 216.743 374.438 218.056 371.42 219.297 L 372.181 221.147 Z M 390.167 212.873 L 391.075 214.655 C 394.021 213.153 396.962 211.58 399.897 209.935 L 398.919 208.19 L 397.942 206.446 C 395.052 208.065 392.157 209.613 389.258 211.091 L 390.167 212.873 Z M 407.443 203.196 L 408.487 204.902 C 411.299 203.182 414.105 201.393 416.904 199.535 L 415.798 197.868 L 414.692 196.202 C 411.933 198.034 409.169 199.796 406.4 201.49 L 407.443 203.196 Z M 423.943 192.246 L 425.108 193.871 C 426.472 192.893 427.834 191.898 429.194 190.886 L 428 189.281 L 426.806 187.677 C 425.465 188.675 424.122 189.656 422.777 190.621 L 423.943 192.246 Z M 428 189.281 L 429.194 190.886 C 430.671 189.787 432.087 188.693 433.445 187.605 L 432.194 186.044 L 430.943 184.483 C 429.624 185.541 428.245 186.606 426.806 187.677 L 428 189.281 Z M 439.852 179.377 L 441.231 180.825 C 443.922 178.262 446.292 175.73 448.358 173.233 L 446.817 171.958 L 445.276 170.683 C 443.32 173.047 441.06 175.464 438.472 177.929 L 439.852 179.377 Z M 452.652 163.623 L 454.389 164.616 C 456.284 161.299 457.645 158.048 458.507 154.875 L 456.577 154.351 L 454.646 153.827 C 453.883 156.637 452.662 159.575 450.916 162.631 L 452.652 163.623 Z M 457.538 144.227 L 459.53 144.049 C 459.199 140.359 458.16 136.872 456.532 133.621 L 454.744 134.517 L 452.956 135.412 C 454.373 138.243 455.263 141.245 455.546 144.406 L 457.538 144.227 Z M 448.817 126.248 L 450.262 124.865 C 447.9 122.396 445.165 120.133 442.142 118.086 L 441.02 119.742 L 439.899 121.398 C 442.719 123.308 445.23 125.392 447.372 127.631 L 448.817 126.248 Z M 432.126 114.73 L 432.975 112.919 C 429.898 111.478 426.646 110.206 423.268 109.111 L 422.652 111.014 L 422.035 112.917 C 425.266 113.963 428.362 115.175 431.278 116.541 L 432.126 114.73 Z M 412.782 108.409 L 413.189 106.45 C 409.823 105.751 406.384 105.216 402.912 104.854 L 402.704 106.843 L 402.497 108.832 C 405.836 109.181 409.142 109.695 412.375 110.367 L 412.782 108.409 Z M 392.522 106.295 L 392.528 104.295 C 389.045 104.284 385.566 104.453 382.131 104.811 L 382.339 106.8 L 382.546 108.789 C 385.834 108.447 389.17 108.284 392.516 108.295 L 392.522 106.295 Z M 372.288 108.448 L 371.844 106.497 C 368.392 107.283 365.029 108.287 361.801 109.52 L 362.515 111.389 L 363.229 113.257 C 366.268 112.095 369.45 111.145 372.732 110.398 L 372.288 108.448 Z M 353.339 115.794 L 352.319 114.074 C 349.257 115.891 346.399 117.981 343.803 120.358 L 345.154 121.833 L 346.505 123.308 C 348.882 121.13 351.516 119.202 354.36 117.514 L 353.339 115.794 Z M 338.501 129.515 L 336.845 128.395 C 334.893 131.281 333.253 134.443 331.978 137.889 L 333.853 138.583 L 335.729 139.277 C 336.893 136.134 338.385 133.257 340.158 130.636 L 338.501 129.515 Z M 331.402 148.396 L 329.422 148.114 C 328.953 151.415 328.768 154.908 328.893 158.598 L 330.891 158.531 L 332.89 158.464 C 332.773 154.992 332.948 151.732 333.382 148.677 L 331.402 148.396 Z M 331.957 168.641 L 329.986 168.98 C 330.281 170.695 330.636 172.447 331.052 174.235 L 333 173.781 L 334.948 173.328 C 334.549 171.613 334.209 169.937 333.928 168.301 L 331.957 168.641 Z M 333 173.781 L 331.052 174.235 C 331.44 175.901 331.849 177.542 332.28 179.159 L 334.213 178.643 L 336.145 178.128 C 335.726 176.554 335.326 174.953 334.948 173.328 L 333 173.781 Z M 337.023 187.949 L 335.129 188.592 C 336.224 191.82 337.413 194.938 338.692 197.948 L 340.533 197.166 L 342.374 196.384 C 341.135 193.467 339.981 190.443 338.917 187.306 L 337.023 187.949 Z M 344.733 206.043 L 342.962 206.972 C 344.531 209.964 346.2 212.834 347.965 215.585 L 349.648 214.505 L 351.332 213.425 C 349.631 210.773 348.02 208.004 346.504 205.114 L 344.733 206.043 Z M 355.3 222.485 L 353.723 223.716 C 355.794 226.37 357.966 228.892 360.235 231.288 L 361.688 229.912 L 363.139 228.537 C 360.958 226.234 358.869 223.808 356.876 221.255 L 355.3 222.485 Z M 368.775 236.705 L 367.462 238.214 C 369.984 240.407 372.6 242.469 375.306 244.404 L 376.469 242.777 L 377.633 241.151 C 375.029 239.288 372.512 237.304 370.087 235.196 L 368.775 236.705 Z M 384.691 248.106 L 383.68 249.832 C 386.539 251.506 389.479 253.059 392.495 254.495 L 393.354 252.689 L 394.214 250.884 C 391.298 249.495 388.459 247.995 385.702 246.38 L 384.691 248.106 Z M 402.374 256.547 L 401.66 258.416 C 404.741 259.593 407.888 260.663 411.097 261.63 L 411.674 259.715 L 412.25 257.8 C 409.131 256.86 406.075 255.821 403.088 254.679 L 402.374 256.547 Z M 421.144 262.227 L 420.694 264.176 C 423.883 264.913 427.124 265.558 430.413 266.115 L 430.747 264.143 L 431.081 262.171 C 427.867 261.627 424.703 260.997 421.594 260.279 L 421.144 262.227 Z M 440.455 265.516 L 440.227 267.503 C 443.482 267.876 446.777 268.171 450.109 268.39 L 450.24 266.394 L 450.372 264.398 C 447.102 264.183 443.871 263.895 440.683 263.529 L 440.455 265.516 Z M 460.059 266.819 L 460.015 268.819 C 463.274 268.889 466.562 268.893 469.878 268.833 L 469.841 266.833 L 469.805 264.834 C 466.541 264.893 463.305 264.889 460.102 264.82 L 460.059 266.819 Z M 479.643 266.474 L 479.752 268.471 C 483.022 268.293 486.314 268.056 489.626 267.764 L 489.45 265.771 L 489.274 263.779 C 486.005 264.068 482.758 264.301 479.534 264.477 L 479.643 266.474 Z M 499.2 264.757 L 499.437 266.743 C 502.679 266.356 505.936 265.919 509.206 265.434 L 508.913 263.456 L 508.619 261.478 C 505.386 261.957 502.166 262.389 498.963 262.771 L 499.2 264.757 Z M 518.61 261.885 L 518.956 263.855 C 522.178 263.289 525.41 262.68 528.648 262.028 L 528.254 260.068 L 527.86 258.107 C 524.653 258.752 521.453 259.355 518.265 259.915 L 518.61 261.885 Z M 537.839 258.023 L 538.278 259.974 C 541.474 259.254 544.675 258.495 547.877 257.699 L 547.394 255.758 L 546.912 253.817 C 543.738 254.606 540.566 255.358 537.399 256.072 L 537.839 258.023 Z M 556.892 253.292 L 557.414 255.222 C 560.575 254.367 563.735 253.477 566.892 252.555 L 566.331 250.636 L 565.771 248.716 C 562.639 249.63 559.504 250.513 556.369 251.361 L 556.892 253.292 Z M 575.728 247.794 L 576.325 249.703 C 579.455 248.725 582.579 247.716 585.695 246.68 L 585.064 244.782 L 584.433 242.884 C 581.339 243.913 578.238 244.914 575.132 245.886 L 575.728 247.794 Z M 594.348 241.602 L 595.012 243.488 C 598.109 242.397 601.196 241.28 604.27 240.138 L 603.573 238.263 L 602.876 236.388 C 599.823 237.522 596.758 238.632 593.683 239.716 L 594.348 241.602 Z M 612.742 234.768 L 613.47 236.631 C 616.534 235.434 619.583 234.214 622.615 232.972 L 621.857 231.122 L 621.099 229.271 C 618.087 230.504 615.058 231.716 612.014 232.906 L 612.742 234.768 Z M 630.897 227.334 L 631.684 229.172 C 634.714 227.874 637.722 226.556 640.708 225.22 L 639.891 223.394 L 639.074 221.569 C 636.108 222.896 633.118 224.206 630.109 225.495 L 630.897 227.334 Z M 648.822 219.311 L 649.668 221.123 C 652.652 219.73 655.609 218.32 658.538 216.895 L 657.663 215.097 L 656.788 213.299 C 653.878 214.714 650.94 216.115 647.976 217.499 L 648.822 219.311 Z M 666.46 210.728 L 667.364 212.512 C 670.317 211.015 673.237 209.504 676.121 207.982 L 675.187 206.213 L 674.254 204.445 C 671.39 205.957 668.489 207.457 665.556 208.944 L 666.46 210.728 Z M 683.811 201.567 L 684.774 203.319 C 687.676 201.723 690.536 200.117 693.351 198.503 L 692.356 196.768 L 691.361 195.033 C 688.567 196.635 685.728 198.23 682.847 199.814 L 683.811 201.567 Z M 700.849 191.794 L 701.876 193.51 C 703.278 192.67 704.668 191.829 706.044 190.987 L 705 189.281 L 703.956 187.575 C 702.591 188.411 701.213 189.245 699.821 190.078 L 700.849 191.794 Z M 705 189.281 L 706.044 190.987 C 707.414 190.149 708.791 189.292 710.174 188.416 L 709.104 186.726 L 708.034 185.036 C 706.668 185.901 705.309 186.748 703.956 187.575 L 705 189.281 Z M 717.373 181.33 L 718.488 182.99 C 721.171 181.189 723.876 179.328 726.601 177.412 L 725.451 175.776 L 724.301 174.14 C 721.597 176.041 718.916 177.885 716.258 179.669 L 717.373 181.33 Z M 733.419 170.066 L 734.598 171.681 C 737.229 169.762 739.878 167.797 742.544 165.793 L 741.342 164.194 L 740.14 162.595 C 737.488 164.59 734.854 166.543 732.24 168.45 L 733.419 170.066 Z M 749.152 158.248 L 750.373 159.832 C 752.944 157.852 755.53 155.839 758.131 153.798 L 756.896 152.225 L 755.661 150.652 C 753.069 152.686 750.493 154.691 747.932 156.663 L 749.152 158.248 Z M 764.634 146.105 L 765.88 147.67 C 768.419 145.648 770.971 143.603 773.534 141.539 L 772.28 139.981 L 771.026 138.423 C 768.467 140.483 765.921 142.524 763.388 144.541 L 764.634 146.105 Z M 779.927 133.801 L 781.187 135.354 C 783.722 133.298 786.269 131.227 788.826 129.144 L 787.563 127.593 L 786.3 126.043 C 783.744 128.124 781.2 130.193 778.667 132.247 L 779.927 133.801 Z M 795.166 121.394 L 796.43 122.944 C 798.964 120.877 801.507 118.803 804.06 116.724 L 802.797 115.173 L 801.533 113.622 C 798.98 115.703 796.436 117.778 793.902 119.845 L 795.166 121.394 Z M 810.41 108.981 L 811.671 110.534 C 814.209 108.475 816.755 106.414 819.31 104.355 L 818.054 102.798 L 816.799 101.241 C 814.241 103.303 811.691 105.367 809.15 107.428 L 810.41 108.981 Z M 825.717 96.646 L 826.966 98.209 C 829.521 96.167 832.083 94.131 834.651 92.102 L 833.412 90.533 L 832.172 88.963 C 829.597 90.997 827.029 93.038 824.469 95.084 L 825.717 96.646 Z M 841.142 84.469 L 842.371 86.047 C 844.955 84.036 847.544 82.035 850.14 80.049 L 848.924 78.46 L 847.708 76.872 C 845.104 78.866 842.505 80.873 839.914 82.891 L 841.142 84.469 Z M 856.753 72.526 L 857.953 74.125 C 860.573 72.159 863.199 70.21 865.828 68.282 L 864.646 66.669 L 863.463 65.056 C 860.821 66.994 858.184 68.951 855.552 70.926 L 856.753 72.526 Z M 872.61 60.904 L 873.772 62.532 C 876.435 60.63 879.102 58.753 881.772 56.903 L 880.633 55.259 L 879.494 53.615 C 876.807 55.476 874.125 57.365 871.448 59.277 L 872.61 60.904 Z M 888.771 49.714 L 889.884 51.376 C 892.604 49.555 895.328 47.766 898.053 46.011 L 896.971 44.329 L 895.888 42.648 C 893.142 44.416 890.398 46.218 887.659 48.052 L 888.771 49.714 Z M 905.294 39.088 L 906.343 40.791 C 909.139 39.07 911.936 37.389 914.735 35.753 L 913.725 34.026 L 912.716 32.3 C 909.89 33.952 907.066 35.648 904.246 37.384 L 905.294 39.088 Z M 922.237 29.188 L 923.203 30.94 C 926.087 29.349 928.971 27.809 931.855 26.323 L 930.939 24.545 L 930.023 22.767 C 927.104 24.271 924.187 25.829 921.271 27.437 L 922.237 29.188 Z M 939.734 20.185 L 940.594 21.991 C 943.549 20.584 946.503 19.239 949.455 17.96 L 948.66 16.125 L 947.865 14.29 C 944.868 15.589 941.871 16.953 938.875 18.379 L 939.734 20.185 Z M 957.777 12.383 L 958.499 14.248 C 961.549 13.068 964.597 11.962 967.64 10.936 L 967.001 9.041 L 966.362 7.145 C 963.261 8.191 960.158 9.317 957.055 10.518 L 957.777 12.383 Z M 976.364 6.134 L 976.909 8.058 C 980.062 7.165 983.209 6.364 986.349 5.658 L 985.911 3.707 L 985.472 1.756 C 982.257 2.478 979.039 3.298 975.819 4.21 L 976.364 6.134 Z M 995.548 1.842 L 995.868 3.817 C 999.072 3.299 1002.269 2.887 1005.457 2.588 L 1005.27 0.597 L 1005.083 -1.394 C 1001.803 -1.086 998.518 -0.663 995.229 -0.132 L 995.548 1.842 Z M 1015.087 0.029 L 1015.129 2.028 C 1018.359 1.96 1021.579 2.014 1024.789 2.196 L 1024.902 0.199 L 1025.015 -1.797 C 1021.699 -1.985 1018.376 -2.041 1015.045 -1.971 L 1015.087 0.029 Z M 1034.667 1.151 L 1034.392 3.132 C 1037.573 3.575 1040.744 4.151 1043.902 4.865 L 1044.344 2.915 L 1044.785 0.964 C 1041.515 0.224 1038.234 -0.372 1034.943 -0.83 L 1034.667 1.151 Z M 1053.794 5.478 L 1053.19 7.385 C 1056.218 8.345 1059.236 9.441 1062.242 10.678 L 1063.003 8.829 L 1063.764 6.979 C 1060.656 5.7 1057.534 4.566 1054.399 3.572 L 1053.794 5.478 Z M 1071.962 12.949 L 1071.054 14.731 C 1073.868 16.165 1076.672 17.729 1079.464 19.429 L 1080.504 17.72 L 1081.544 16.012 C 1078.667 14.26 1075.775 12.647 1072.87 11.167 L 1071.962 12.949 Z M 1088.674 23.101 L 1087.516 24.732 C 1090.126 26.584 1092.726 28.56 1095.314 30.666 L 1096.576 29.114 L 1097.838 27.562 C 1095.183 25.403 1092.514 23.373 1089.831 21.47 L 1088.674 23.101 Z M 1103.913 35.452 L 1102.563 36.928 C 1104.911 39.077 1107.25 41.337 1109.578 43.712 L 1111.006 42.311 L 1112.434 40.911 C 1110.057 38.487 1107.667 36.176 1105.264 33.977 L 1103.913 35.452 Z M 1117.685 49.467 L 1116.191 50.797 C 1117.288 52.03 1118.383 53.29 1119.475 54.576 L 1121 53.281 L 1122.525 51.987 C 1121.412 50.677 1120.297 49.394 1119.179 48.138 L 1117.685 49.467 Z M 1121 53.281 L 1119.475 54.576 C 1120.581 55.878 1121.668 57.175 1122.734 58.465 L 1124.276 57.191 L 1125.817 55.916 C 1124.739 54.612 1123.642 53.302 1122.525 51.987 L 1121 53.281 Z M 1130.483 64.903 L 1128.909 66.136 C 1130.992 68.797 1132.995 71.431 1134.921 74.039 L 1136.53 72.851 L 1138.139 71.663 C 1136.19 69.024 1134.165 66.36 1132.058 63.67 L 1130.483 64.903 Z M 1142.237 80.817 L 1140.595 81.958 C 1142.538 84.755 1144.394 87.52 1146.17 90.254 L 1147.847 89.165 L 1149.524 88.075 C 1147.726 85.307 1145.846 82.507 1143.88 79.676 L 1142.237 80.817 Z M 1153.113 97.558 L 1151.402 98.594 C 1153.131 101.451 1154.775 104.272 1156.341 107.057 L 1158.084 106.077 L 1159.828 105.098 C 1158.242 102.275 1156.576 99.417 1154.824 96.523 L 1153.113 97.558 Z M 1162.843 114.884 L 1161.068 115.806 C 1162.619 118.794 1164.083 121.739 1165.47 124.641 L 1167.275 123.778 L 1169.079 122.915 C 1167.674 119.976 1166.19 116.992 1164.618 113.963 L 1162.843 114.884 Z M 1171.4 132.775 L 1169.569 133.58 C 1170.918 136.648 1172.187 139.666 1173.387 142.632 L 1175.241 141.881 L 1177.095 141.131 C 1175.881 138.131 1174.597 135.077 1173.231 131.97 L 1171.4 132.775 Z M 1178.854 151.175 L 1176.981 151.875 C 1178.166 155.045 1179.283 158.152 1180.348 161.195 L 1182.235 160.535 L 1184.123 159.875 C 1183.051 156.809 1181.924 153.675 1180.727 150.474 L 1178.854 151.175 Z M 1185.446 169.942 L 1183.549 170.576 C 1184.626 173.795 1185.658 176.932 1186.673 179.998 L 1188.572 179.37 L 1190.47 178.742 C 1189.458 175.683 1188.422 172.534 1187.343 169.308 L 1185.446 169.942 Z M 1191.73 188.781 L 1189.838 189.431 C 1190.945 192.654 1192.058 195.786 1193.207 198.824 L 1195.077 198.117 L 1196.948 197.41 C 1195.818 194.422 1194.72 191.33 1193.621 188.132 L 1191.73 188.781 Z M 1198.823 207.304 L 1196.995 208.115 C 1198.387 211.253 1199.865 214.28 1201.47 217.191 L 1203.222 216.225 L 1204.973 215.259 C 1203.432 212.465 1202.004 209.544 1200.651 206.493 L 1198.823 207.304 Z M 1208.495 224.627 L 1206.87 225.792 C 1208.839 228.54 1210.988 231.161 1213.364 233.652 L 1214.811 232.272 L 1216.259 230.891 C 1214.019 228.543 1211.988 226.068 1210.121 223.462 L 1208.495 224.627 Z M 1222.185 238.951 L 1220.952 240.526 C 1223.526 242.541 1226.314 244.443 1229.347 246.233 L 1230.363 244.511 L 1231.38 242.789 C 1228.492 241.084 1225.849 239.28 1223.417 237.376 L 1222.185 238.951 Z M 1239.167 249.058 L 1238.344 250.881 C 1241.28 252.207 1244.407 253.454 1247.743 254.623 L 1248.405 252.735 L 1249.066 250.848 C 1245.832 249.714 1242.813 248.51 1239.99 247.235 L 1239.167 249.058 Z M 1257.958 255.705 L 1257.428 257.633 C 1260.483 258.473 1263.691 259.262 1267.06 259.999 L 1267.487 258.045 L 1267.915 256.092 C 1264.609 255.368 1261.471 254.597 1258.489 253.776 L 1257.958 255.705 Z M 1277.165 259.94 L 1276.821 261.91 C 1280.011 262.467 1283.33 262.986 1286.786 263.466 L 1287.061 261.485 L 1287.336 259.504 C 1283.923 259.03 1280.65 258.518 1277.51 257.97 L 1277.165 259.94 Z M 1296.897 262.706 L 1296.678 264.694 C 1299.858 265.045 1303.144 265.367 1306.538 265.662 L 1306.711 263.669 L 1306.884 261.677 C 1303.519 261.385 1300.264 261.065 1297.116 260.718 L 1296.897 262.706 Z M 1316.775 264.439 L 1316.642 266.434 C 1319.809 266.646 1323.063 266.835 1326.408 267.003 L 1326.508 265.006 L 1326.608 263.008 C 1323.284 262.841 1320.052 262.653 1316.908 262.443 L 1316.775 264.439 Z M 1336.624 265.438 L 1336.552 267.437 C 1339.729 267.55 1342.982 267.645 1346.313 267.724 L 1346.36 265.724 L 1346.406 263.725 C 1343.091 263.647 1339.855 263.552 1336.695 263.439 L 1336.624 265.438 Z M 1356.406 265.903 L 1356.381 267.903 C 1359.606 267.943 1362.899 267.969 1366.263 267.979 L 1366.269 265.979 L 1366.276 263.979 C 1362.924 263.969 1359.643 263.944 1356.431 263.903 L 1356.406 265.903 Z M 1376.167 265.967 L 1376.178 267.967 C 1379.494 267.949 1382.874 267.918 1386.321 267.873 L 1386.295 265.873 L 1386.269 263.874 C 1382.832 263.918 1379.462 263.949 1376.156 263.967 L 1376.167 265.967 Z M 1395.995 265.715 L 1396.034 267.715 C 1399.329 267.651 1402.681 267.575 1406.092 267.488 L 1406.041 265.489 L 1405.989 263.489 C 1402.587 263.576 1399.243 263.652 1395.956 263.716 L 1395.995 265.715 Z M 1415.997 265.207 L 1416.059 267.206 C 1419.27 267.106 1422.531 266.997 1425.842 266.878 L 1425.77 264.879 L 1425.699 262.881 C 1422.394 262.999 1419.14 263.108 1415.935 263.207 L 1415.997 265.207 Z M 1435.847 264.495 L 1435.927 266.493 C 1437.634 266.424 1439.353 266.353 1441.085 266.279 L 1441 264.281 L 1440.915 262.283 C 1439.186 262.357 1437.469 262.428 1435.766 262.497 L 1435.847 264.495 Z" fill="currentColor" fill-rule="nonzero"></path>
</svg>